<svg width="92" height="92" viewBox="0 0 92 92" fill="none" xmlns="http://www.w3.org/2000/svg">
<path d="M45.84 53.11C49.8551 53.11 53.11 49.8551 53.11 45.84C53.11 41.8249 49.8551 38.57 45.84 38.57C41.8249 38.57 38.57 41.8249 38.57 45.84C38.57 49.8551 41.8249 53.11 45.84 53.11Z" fill="#CFD324"/>
<path d="M19.02 80.55C23.4162 80.55 26.98 76.9862 26.98 72.59C26.98 68.1938 23.4162 64.63 19.02 64.63C14.6238 64.63 11.06 68.1938 11.06 72.59C11.06 76.9862 14.6238 80.55 19.02 80.55Z" fill="white"/>
<path d="M7.96 53.75C12.3562 53.75 15.92 50.1862 15.92 45.79C15.92 41.3938 12.3562 37.83 7.96 37.83C3.56381 37.83 0 41.3938 0 45.79C0 50.1862 3.56381 53.75 7.96 53.75Z" fill="white"/>
<path d="M19.1 26.98C23.4962 26.98 27.06 23.4162 27.06 19.02C27.06 14.6238 23.4962 11.06 19.1 11.06C14.7038 11.06 11.14 14.6238 11.14 19.02C11.14 23.4162 14.7038 26.98 19.1 26.98Z" fill="white"/>
<path d="M45.9 15.92C50.2962 15.92 53.86 12.3562 53.86 7.96C53.86 3.56381 50.2962 0 45.9 0C41.5038 0 37.94 3.56381 37.94 7.96C37.94 12.3562 41.5038 15.92 45.9 15.92Z" fill="white"/>
<path d="M72.67 27.05C77.0662 27.05 80.63 23.4862 80.63 19.09C80.63 14.6938 77.0662 11.13 72.67 11.13C68.2738 11.13 64.71 14.6938 64.71 19.09C64.71 23.4862 68.2738 27.05 72.67 27.05Z" fill="white"/>
<path d="M83.73 53.85C88.1262 53.85 91.69 50.2862 91.69 45.89C91.69 41.4938 88.1262 37.93 83.73 37.93C79.3338 37.93 75.77 41.4938 75.77 45.89C75.77 50.2862 79.3338 53.85 83.73 53.85Z" fill="white"/>
<path d="M72.6 80.62C76.9962 80.62 80.56 77.0562 80.56 72.66C80.56 68.2638 76.9962 64.7 72.6 64.7C68.2038 64.7 64.64 68.2638 64.64 72.66C64.64 77.0562 68.2038 80.62 72.6 80.62Z" fill="white"/>
<path d="M45.79 91.68C50.1862 91.68 53.75 88.1162 53.75 83.72C53.75 79.3238 50.1862 75.76 45.79 75.76C41.3938 75.76 37.83 79.3238 37.83 83.72C37.83 88.1162 41.3938 91.68 45.79 91.68Z" fill="white"/>
</svg>
