<svg width="174" height="73" viewBox="0 0 174 73" fill="none" xmlns="http://www.w3.org/2000/svg">
<g clip-path="url(#clip0_107_2123)">
<path d="M3.11084 33.317H4.1724C5.12222 33.317 5.91373 33.1979 6.54694 32.9598C7.18015 32.7218 7.69231 32.3829 8.08341 31.9433C8.47451 31.5221 8.75387 31.0093 8.92148 30.4048C9.0891 29.8004 9.1729 29.1228 9.1729 28.3718C9.1729 27.8773 9.14497 27.3645 9.0891 26.8333C9.03323 26.3022 8.95876 25.7711 8.86561 25.2399L8.27896 21.9157L10.6814 21.4761L11.0725 23.7838C11.1657 24.315 11.2402 24.8278 11.296 25.3223C11.3705 25.8168 11.4264 26.2839 11.4636 26.7234H14.0617V29.1686L13.3912 29.8279H11.4636C11.3519 30.7803 11.1284 31.6594 10.7932 32.4653C10.458 33.2712 9.99238 33.9672 9.39639 34.5533C8.81908 35.1394 8.10201 35.5973 7.24534 35.9269C6.38864 36.2566 5.37364 36.4215 4.20034 36.4215H3.11084V33.317ZM13.3921 27.3828L14.0625 26.7234H17.0517V29.1686L16.3812 29.8279H13.3921V27.3828ZM16.393 27.3828L17.0635 26.7234H20.0526V29.1686L19.3822 29.8279H16.393V27.3828ZM19.3939 27.3828L20.0643 26.7234H23.0535V29.1686L22.383 29.8279H19.3939V27.3828ZM22.3948 27.3828L23.0653 26.7234H23.6519C24.9184 26.7234 25.8123 26.5861 26.3338 26.3113C26.8552 26.0183 27.116 25.4963 27.116 24.7454C27.116 24.434 27.088 24.0403 27.0322 23.564C26.9949 23.0878 26.9111 22.4559 26.7807 21.6684L26.3338 19.2782L28.7642 18.8936L29.1273 21.2838C29.3508 22.749 29.4626 23.9029 29.4626 24.7454C29.4626 26.467 28.9877 27.7491 28.0379 28.5916C27.088 29.4158 25.626 29.8279 23.6519 29.8279H22.3948V27.3828ZM28.8759 35.5148C28.4476 35.5148 28.1031 35.3867 27.8423 35.1302C27.6002 34.8738 27.4791 34.48 27.4791 33.9489C27.4791 33.3994 27.6002 32.9965 27.8423 32.7401C28.1031 32.502 28.4476 32.3829 28.8759 32.3829H29.295C29.7233 32.3829 30.0678 32.502 30.3286 32.7401C30.5893 32.9965 30.7197 33.3994 30.7197 33.9489C30.7197 34.48 30.5893 34.8738 30.3286 35.1302C30.0678 35.3867 29.7233 35.5148 29.295 35.5148H28.8759ZM24.937 35.5148C24.5086 35.5148 24.1641 35.3867 23.9034 35.1302C23.6613 34.8738 23.5402 34.48 23.5402 33.9489C23.5402 33.3994 23.6613 32.9965 23.9034 32.7401C24.1641 32.502 24.5086 32.3829 24.937 32.3829H25.356C25.7844 32.3829 26.1289 32.502 26.3896 32.7401C26.6504 32.9965 26.7807 33.3994 26.7807 33.9489C26.7807 34.48 26.6504 34.8738 26.3896 35.1302C26.1289 35.3867 25.7844 35.5148 25.356 35.5148H24.937ZM31.7287 33.317H32.7902C33.74 33.317 34.5316 33.1979 35.1648 32.9598C35.7979 32.7218 36.3101 32.3829 36.7012 31.9433C37.0923 31.5221 37.3717 31.0093 37.5393 30.4048C37.7069 29.8004 37.7907 29.1228 37.7907 28.3718C37.7907 27.8773 37.7628 27.3645 37.7069 26.8333C37.651 26.3022 37.5766 25.7711 37.4834 25.2399L36.8968 21.9157L39.2992 21.4761L39.6903 23.7838C40.007 25.5604 40.1653 27.0806 40.1653 28.3444C40.1653 29.4799 40.0256 30.533 39.7462 31.5038C39.4855 32.4928 39.0572 33.3537 38.4612 34.0862C37.8652 34.8188 37.1017 35.3867 36.1704 35.7896C35.2392 36.2109 34.1218 36.4215 32.8181 36.4215H31.7287V33.317ZM48.3022 29.8279C46.4771 29.8279 45.1641 29.4616 44.3633 28.729C43.5624 27.978 43.162 26.7326 43.162 24.9926V9.4978H45.7601V24.7454C45.7601 25.5146 45.9369 26.0366 46.2909 26.3113C46.6633 26.5861 47.2686 26.7234 48.1067 26.7234H49.0286V29.1686L48.3302 29.8279H48.3022ZM48.3664 27.3828L49.0369 26.7234H52.026V29.1686L51.3555 29.8279H48.3664V27.3828ZM51.3673 27.3828L52.0377 26.7234H55.0269V29.1686L54.3564 29.8279H51.3673V27.3828ZM54.3682 27.3828L55.0387 26.7234H58.0278V29.1686L57.3573 29.8279H54.3682V27.3828ZM57.3691 27.3828L58.0396 26.7234H61.6433L61.6992 26.5861C60.023 25.1758 59.185 23.5183 59.185 21.6134C59.185 20.8442 59.306 20.1207 59.5481 19.4431C59.8088 18.7654 60.172 18.1701 60.6376 17.6573C61.1032 17.1445 61.6526 16.7415 62.2858 16.4485C62.9376 16.1555 63.6547 16.0089 64.4369 16.0089C65.2191 16.0089 65.9268 16.1555 66.56 16.4485C67.2118 16.7415 67.7613 17.1445 68.2082 17.6573C68.6738 18.1518 69.037 18.7471 69.2977 19.4431C69.5584 20.1207 69.6888 20.8442 69.6888 21.6134C69.6888 23.4999 68.8508 25.1575 67.1746 26.5861L67.2305 26.7234H70.8621V29.1686L70.1917 29.8279H69.8564C68.8694 29.8279 67.9195 29.718 67.007 29.4982C66.113 29.2602 65.2563 28.8755 64.4369 28.3444C63.636 28.8755 62.7794 29.2602 61.8668 29.4982C60.9542 29.718 60.0137 29.8279 59.0453 29.8279H57.3691V27.3828ZM64.4369 26.0916C65.3867 25.5788 66.1223 24.9926 66.6438 24.3333C67.1653 23.6739 67.426 22.9047 67.426 22.0255C67.426 21.1464 67.1559 20.4413 66.6159 19.9101C66.0944 19.3789 65.4146 19.1134 64.5766 19.1134H64.2693C63.4312 19.1134 62.7421 19.3789 62.202 19.9101C61.6805 20.4413 61.4198 21.1464 61.4198 22.0255C61.4198 22.9047 61.6805 23.6739 62.202 24.3333C62.7421 24.9926 63.4871 25.5788 64.4369 26.0916ZM66.141 13.2067C65.7126 13.2067 65.368 13.0785 65.1074 12.822C64.8652 12.5656 64.7442 12.1719 64.7442 11.6407C64.7442 11.0912 64.8652 10.6974 65.1074 10.4594C65.368 10.2029 65.7126 10.0747 66.141 10.0747H66.56C66.9883 10.0747 67.3329 10.2029 67.5936 10.4594C67.8543 10.6974 67.9847 11.0912 67.9847 11.6407C67.9847 12.1719 67.8543 12.5656 67.5936 12.822C67.3329 13.0785 66.9883 13.2067 66.56 13.2067H66.141ZM62.202 13.2067C61.7737 13.2067 61.4291 13.0785 61.1684 12.822C60.9263 12.5656 60.8052 12.1719 60.8052 11.6407C60.8052 11.0912 60.9263 10.6974 61.1684 10.4594C61.4291 10.2029 61.7737 10.0747 62.202 10.0747H62.6211C63.0494 10.0747 63.3939 10.2029 63.6547 10.4594C63.9154 10.6974 64.0458 11.0912 64.0458 11.6407C64.0458 12.1719 63.9154 12.5656 63.6547 12.822C63.3939 13.0785 63.0494 13.2067 62.6211 13.2067H62.202ZM70.1912 27.3828L70.8621 26.7234H73.8508V29.1686L73.1803 29.8279H70.1917L70.1912 27.3828ZM73.1921 27.3828L73.8626 26.7234H74.4492C75.7156 26.7234 76.6096 26.5861 77.1311 26.3113C77.6525 26.0183 77.9133 25.4963 77.9133 24.7454C77.9133 24.434 77.8853 24.0403 77.8295 23.564C77.7922 23.0878 77.7084 22.4559 77.578 21.6684L77.1311 19.2782L79.5615 18.8936L79.9247 21.2838C80.1481 22.749 80.2599 23.9029 80.2599 24.7454C80.2599 26.467 79.785 27.7491 78.8352 28.5916C77.8853 29.4158 76.4233 29.8279 74.4492 29.8279H73.1921V27.3828ZM79.7012 16.0914C79.2728 16.0914 78.9282 15.9632 78.6675 15.7067C78.4254 15.4503 78.3044 15.0566 78.3044 14.5254C78.3044 13.9759 78.4254 13.5821 78.6675 13.344C78.9282 13.0876 79.2728 12.9594 79.7012 12.9594H80.1202C80.5488 12.9594 80.8928 13.0876 81.1538 13.344C81.4148 13.5821 81.5449 13.9759 81.5449 14.5254C81.5449 15.0566 81.4148 15.4503 81.1538 15.7067C80.8928 15.9632 80.5488 16.0914 80.1202 16.0914H79.7012ZM75.7622 16.0914C75.3338 16.0914 74.9893 15.9632 74.7286 15.7067C74.4864 15.4503 74.3654 15.0566 74.3654 14.5254C74.3654 13.9759 74.4864 13.5821 74.7286 13.344C74.9893 13.0876 75.3338 12.9594 75.7622 12.9594H76.1813C76.6096 12.9594 76.9541 13.0876 77.2149 13.344C77.4756 13.5821 77.606 13.9759 77.606 14.5254C77.606 15.0566 77.4756 15.4503 77.2149 15.7067C76.9541 15.9632 76.6096 16.0914 76.1813 16.0914H75.7622Z" fill="white"/>
<path d="M7.85206 48.8864V63.5806H5.84068V48.8864H0.524902V47.1438H13.1678V48.8864H7.85206ZM23.032 63.5806C22.3137 63.5806 21.7949 63.3922 21.4756 63.0154C21.1723 62.6386 20.9808 62.1677 20.9009 61.6025H20.7812C20.5098 62.3561 20.0629 62.9212 19.4403 63.298C18.8177 63.6748 18.0754 63.8632 17.2134 63.8632C15.9044 63.8632 14.8828 63.5335 14.1485 62.8741C13.4301 62.2148 13.0709 61.3199 13.0709 60.1896C13.0709 59.0436 13.494 58.1644 14.34 57.5522C15.202 56.9399 16.535 56.6338 18.3388 56.6338H20.7812V55.4328C20.7812 54.5694 20.5418 53.91 20.0629 53.4548C19.584 52.9995 18.8497 52.7719 17.8599 52.7719C17.1097 52.7719 16.4791 52.9367 15.9683 53.2664C15.4734 53.5961 15.0584 54.0356 14.7231 54.5851L13.5738 53.5254C13.909 52.8661 14.4438 52.3087 15.1781 51.8535C15.9124 51.3825 16.8383 51.147 17.9557 51.147C19.4563 51.147 20.6216 51.5081 21.4517 52.2302C22.2818 52.9524 22.6968 53.9571 22.6968 55.2444V61.9322H24.1096V63.5806H23.032ZM17.5247 62.2619C18.0036 62.2619 18.4426 62.2069 18.8417 62.097C19.2408 61.9871 19.584 61.8301 19.8713 61.6261C20.1586 61.422 20.3821 61.1865 20.5418 60.9196C20.7014 60.6527 20.7812 60.3623 20.7812 60.0483V58.0467H18.2431C17.1416 58.0467 16.3354 58.2037 15.8246 58.5177C15.3297 58.8316 15.0823 59.2869 15.0823 59.8835V60.378C15.0823 60.9745 15.2978 61.4377 15.7288 61.7673C16.1758 62.097 16.7744 62.2619 17.5247 62.2619ZM37.2597 64.9228C37.2597 66.1787 36.7568 67.0971 35.7511 67.678C34.7614 68.2746 33.2688 68.5728 31.2734 68.5728C29.3419 68.5728 27.9531 68.3138 27.107 67.7957C26.2609 67.2777 25.8379 66.5398 25.8379 65.5822C25.8379 64.9228 26.0135 64.4048 26.3647 64.028C26.7159 63.6669 27.1948 63.4 27.8014 63.2273V62.9683C27.0671 62.6229 26.6999 62.0578 26.6999 61.2728C26.6999 60.6606 26.8995 60.1975 27.2986 59.8835C27.6976 59.5538 28.2085 59.3105 28.831 59.1535V59.0593C28.0967 58.7139 27.522 58.2194 27.107 57.5757C26.7079 56.9321 26.5084 56.1864 26.5084 55.3386C26.5084 54.7264 26.6201 54.1612 26.8436 53.6431C27.0671 53.1251 27.3784 52.6855 27.7775 52.3244C28.1925 51.9477 28.6794 51.6572 29.2381 51.4532C29.8128 51.2491 30.4513 51.147 31.1537 51.147C32.0317 51.147 32.8139 51.304 33.5003 51.618V51.4061C33.5003 50.9351 33.612 50.5505 33.8355 50.2522C34.059 49.9382 34.4262 49.7812 34.937 49.7812H36.7808V51.4296H34.4342V52.2067C34.8811 52.5835 35.2243 53.0387 35.4638 53.5725C35.7192 54.0906 35.8469 54.6793 35.8469 55.3386C35.8469 55.9509 35.7352 56.5161 35.5117 57.0341C35.2882 57.5522 34.9689 57.9996 34.5539 58.3764C34.1548 58.7375 33.6679 59.02 33.0932 59.2241C32.5186 59.4282 31.88 59.5302 31.1776 59.5302C30.7786 59.5302 30.3795 59.491 29.9804 59.4125C29.5653 59.5224 29.1902 59.6872 28.855 59.907C28.5197 60.1111 28.3521 60.4015 28.3521 60.7783C28.3521 61.1394 28.5277 61.3827 28.8789 61.5083C29.2301 61.6339 29.6851 61.6967 30.2438 61.6967H32.8777C34.4102 61.6967 35.5197 61.9871 36.2061 62.568C36.9085 63.1332 37.2597 63.9181 37.2597 64.9228ZM35.4638 65.0641C35.4638 64.5775 35.2722 64.185 34.8891 63.8867C34.5219 63.6041 33.8595 63.4628 32.9017 63.4628H28.7831C28.0169 63.8082 27.6338 64.3577 27.6338 65.1112C27.6338 65.645 27.8333 66.1003 28.2324 66.477C28.6475 66.8538 29.3419 67.0422 30.3156 67.0422H32.0875C33.1571 67.0422 33.9872 66.8773 34.5778 66.5477C35.1685 66.218 35.4638 65.7235 35.4638 65.0641ZM31.1776 58.0232C31.9918 58.0232 32.6383 57.8348 33.1172 57.458C33.5961 57.0655 33.8355 56.469 33.8355 55.6683V55.009C33.8355 54.2083 33.5961 53.6196 33.1172 53.2428C32.6383 52.8504 31.9918 52.6541 31.1776 52.6541C30.3635 52.6541 29.717 52.8504 29.2381 53.2428C28.7592 53.6196 28.5197 54.2083 28.5197 55.009V55.6683C28.5197 56.469 28.7592 57.0655 29.2381 57.458C29.717 57.8348 30.3635 58.0232 31.1776 58.0232ZM48.4034 63.5806C47.685 63.5806 47.1662 63.3922 46.847 63.0154C46.5437 62.6386 46.3521 62.1677 46.2723 61.6025H46.1526C45.8812 62.3561 45.4342 62.9212 44.8117 63.298C44.1891 63.6748 43.4468 63.8632 42.5848 63.8632C41.2758 63.8632 40.2541 63.5335 39.5198 62.8741C38.8015 62.2148 38.4423 61.3199 38.4423 60.1896C38.4423 59.0436 38.8653 58.1644 39.7114 57.5522C40.5734 56.9399 41.9063 56.6338 43.7102 56.6338H46.1526V55.4328C46.1526 54.5694 45.9131 53.91 45.4342 53.4548C44.9553 52.9995 44.221 52.7719 43.2313 52.7719C42.481 52.7719 41.8505 52.9367 41.3396 53.2664C40.8448 53.5961 40.4297 54.0356 40.0945 54.5851L38.9451 53.5254C39.2804 52.8661 39.8151 52.3087 40.5494 51.8535C41.2838 51.3825 42.2096 51.147 43.3271 51.147C44.8276 51.147 45.9929 51.5081 46.823 52.2302C47.6531 52.9524 48.0682 53.9571 48.0682 55.2444V61.9322H49.4809V63.5806H48.4034ZM42.8961 62.2619C43.375 62.2619 43.8139 62.2069 44.213 62.097C44.6121 61.9871 44.9553 61.8301 45.2427 61.6261C45.53 61.422 45.7535 61.1865 45.9131 60.9196C46.0728 60.6527 46.1526 60.3623 46.1526 60.0483V58.0467H43.6144C42.5129 58.0467 41.7068 58.2037 41.196 58.5177C40.7011 58.8316 40.4537 59.2869 40.4537 59.8835V60.378C40.4537 60.9745 40.6692 61.4377 41.1002 61.7673C41.5472 62.097 42.1458 62.2619 42.8961 62.2619ZM52.215 63.5806V51.4296H54.1305V53.6667H54.2503C54.4738 53.0858 54.8728 52.5678 55.4475 52.1125C56.0222 51.6572 56.8124 51.4296 57.8181 51.4296H58.5604V53.3135H57.435C56.3973 53.3135 55.5832 53.5097 54.9926 53.9022C54.4179 54.279 54.1305 54.7578 54.1305 55.3386V63.5806H52.215ZM65.5356 63.8632C64.6896 63.8632 63.9233 63.714 63.2369 63.4157C62.5664 63.1175 61.9838 62.6936 61.4889 62.1441C61.01 61.579 60.6349 60.9118 60.3635 60.1425C60.1081 59.3576 59.9804 58.4784 59.9804 57.5051C59.9804 56.5475 60.1081 55.6762 60.3635 54.8912C60.6349 54.1063 61.01 53.4391 61.4889 52.8896C61.9838 52.3244 62.5664 51.8927 63.2369 51.5944C63.9233 51.2962 64.6896 51.147 65.5356 51.147C66.3657 51.147 67.108 51.2962 67.7625 51.5944C68.417 51.8927 68.9757 52.3087 69.4386 52.8425C69.9016 53.3606 70.2528 53.9807 70.4922 54.7028C70.7476 55.425 70.8753 56.2178 70.8753 57.0812V57.9761H61.9918V58.5412C61.9918 59.0593 62.0716 59.5459 62.2312 60.0012C62.4068 60.4408 62.6463 60.8254 62.9496 61.1551C63.2688 61.4848 63.6519 61.7438 64.0989 61.9322C64.5619 62.1206 65.0807 62.2148 65.6553 62.2148C66.4375 62.2148 67.116 62.0342 67.6907 61.6732C68.2813 61.3121 68.7363 60.794 69.0555 60.119L70.4204 61.0844C70.0213 61.9165 69.3987 62.5915 68.5527 63.1096C67.7066 63.612 66.7009 63.8632 65.5356 63.8632ZM65.5356 52.7248C65.0088 52.7248 64.5299 52.819 64.0989 53.0073C63.6679 53.18 63.2928 53.4312 62.9735 53.7609C62.6702 54.0906 62.4307 54.483 62.2551 54.9383C62.0796 55.3779 61.9918 55.8645 61.9918 56.3983V56.5632H68.8161V56.3041C68.8161 55.2209 68.5128 54.3575 67.9062 53.7138C67.3155 53.0544 66.5253 52.7248 65.5356 52.7248ZM74.032 63.5806V51.4296H75.9476V53.6667H76.0673C76.2908 53.0858 76.6899 52.5678 77.2646 52.1125C77.8392 51.6572 78.6294 51.4296 79.6351 51.4296H80.3773V53.3135H79.252C78.2144 53.3135 77.4003 53.5097 76.8096 53.9022C76.2349 54.279 75.9476 54.7578 75.9476 55.3386V63.5806H74.032Z" fill="white"/>
<path d="M137.155 42.4734C140.359 42.4734 142.957 39.9185 142.957 36.7669C142.957 33.6152 140.359 31.0603 137.155 31.0603C133.95 31.0603 131.352 33.6152 131.352 36.7669C131.352 39.9185 133.95 42.4734 137.155 42.4734Z" fill="white"/>
<path d="M115.748 64.0125C119.257 64.0125 122.101 61.2151 122.101 57.7643C122.101 54.3135 119.257 51.5161 115.748 51.5161C112.239 51.5161 109.395 54.3135 109.395 57.7643C109.395 61.2151 112.239 64.0125 115.748 64.0125Z" fill="white"/>
<path d="M106.92 42.9758C110.429 42.9758 113.274 40.1784 113.274 36.7277C113.274 33.2769 110.429 30.4795 106.92 30.4795C103.412 30.4795 100.567 33.2769 100.567 36.7277C100.567 40.1784 103.412 42.9758 106.92 42.9758Z" fill="white"/>
<path d="M115.812 21.9629C119.321 21.9629 122.165 19.1655 122.165 15.7147C122.165 12.2639 119.321 9.46655 115.812 9.46655C112.303 9.46655 109.458 12.2639 109.458 15.7147C109.458 19.1655 112.303 21.9629 115.812 21.9629Z" fill="white"/>
<path d="M137.203 13.2813C140.711 13.2813 143.556 10.4839 143.556 7.03308C143.556 3.58231 140.711 0.784912 137.203 0.784912C133.694 0.784912 130.849 3.58231 130.849 7.03308C130.849 10.4839 133.694 13.2813 137.203 13.2813Z" fill="white"/>
<path d="M158.569 22.0178C162.078 22.0178 164.923 19.2204 164.923 15.7697C164.923 12.3189 162.078 9.52148 158.569 9.52148C155.061 9.52148 152.216 12.3189 152.216 15.7697C152.216 19.2204 155.061 22.0178 158.569 22.0178Z" fill="white"/>
<path d="M167.397 43.0542C170.906 43.0542 173.751 40.2568 173.751 36.806C173.751 33.3553 170.906 30.5579 167.397 30.5579C163.889 30.5579 161.044 33.3553 161.044 36.806C161.044 40.2568 163.889 43.0542 167.397 43.0542Z" fill="white"/>
<path d="M158.514 64.0674C162.022 64.0674 164.867 61.27 164.867 57.8192C164.867 54.3684 162.022 51.571 158.514 51.571C155.005 51.571 152.16 54.3684 152.16 57.8192C152.16 61.27 155.005 64.0674 158.514 64.0674Z" fill="white"/>
<path d="M137.115 72.7488C140.624 72.7488 143.468 69.9514 143.468 66.5006C143.468 63.0498 140.624 60.2524 137.115 60.2524C133.606 60.2524 130.761 63.0498 130.761 66.5006C130.761 69.9514 133.606 72.7488 137.115 72.7488Z" fill="white"/>
</g>
<defs>
<clipPath id="clip0_107_2123">
<rect width="174" height="73" fill="white" transform="translate(-0.00195312)"/>
</clipPath>
</defs>
</svg>
