<svg width="154" height="65" viewBox="0 0 154 65" fill="none" xmlns="http://www.w3.org/2000/svg">
<g clip-path="url(#clip0_346_625)">
<path d="M2.75513 29.6659H3.69467C4.53531 29.6659 5.23585 29.5599 5.79627 29.3479C6.3567 29.1359 6.80999 28.8342 7.15614 28.4428C7.50228 28.0677 7.74953 27.6111 7.89788 27.0729C8.04623 26.5347 8.1204 25.9313 8.1204 25.2627C8.1204 24.8224 8.09568 24.3657 8.04623 23.8928C7.99678 23.4198 7.93087 22.9469 7.84843 22.474L7.32921 19.514L9.45554 19.1226L9.80169 21.1775C9.88413 21.6504 9.95003 22.107 9.99948 22.5474C10.0654 22.9877 10.1148 23.4035 10.1478 23.7949H12.4472V25.9721L11.8538 26.5592H10.1478C10.0489 27.4072 9.85114 28.19 9.55444 28.9076C9.25774 29.6252 8.84569 30.2448 8.3182 30.7667C7.80725 31.2886 7.1726 31.6963 6.41439 31.9898C5.65617 32.2834 4.75783 32.4302 3.71939 32.4302H2.75513V29.6659ZM11.8546 24.382L12.448 23.7949H15.0936V25.9721L14.5002 26.5592H11.8546V24.382ZM14.5106 24.382L15.104 23.7949H17.7496V25.9721L17.1562 26.5592H14.5106V24.382ZM17.1666 24.382L17.76 23.7949H20.4055V25.9721L19.8121 26.5592H17.1666V24.382ZM19.8226 24.382L20.416 23.7949H20.9352C22.0561 23.7949 22.8473 23.6726 23.3088 23.428C23.7703 23.1671 24.0011 22.7023 24.0011 22.0336C24.0011 21.7564 23.9763 21.4058 23.9269 20.9818C23.8939 20.5577 23.8197 19.9951 23.7044 19.2939L23.3088 17.1656L25.4598 16.8232L25.7812 18.9514C25.979 20.2561 26.0779 21.2835 26.0779 22.0336C26.0779 23.5666 25.6576 24.7082 24.817 25.4584C23.9763 26.1922 22.6824 26.5592 20.9352 26.5592H19.8226V24.382ZM25.5587 31.6229C25.1796 31.6229 24.8747 31.5088 24.6439 31.2804C24.4296 31.0521 24.3225 30.7015 24.3225 30.2285C24.3225 29.7393 24.4296 29.3805 24.6439 29.1522C24.8747 28.9402 25.1796 28.8342 25.5587 28.8342H25.9296C26.3087 28.8342 26.6136 28.9402 26.8444 29.1522C27.0752 29.3805 27.1905 29.7393 27.1905 30.2285C27.1905 30.7015 27.0752 31.0521 26.8444 31.2804C26.6136 31.5088 26.3087 31.6229 25.9296 31.6229H25.5587ZM22.0725 31.6229C21.6934 31.6229 21.3885 31.5088 21.1577 31.2804C20.9434 31.0521 20.8363 30.7015 20.8363 30.2285C20.8363 29.7393 20.9434 29.3805 21.1577 29.1522C21.3885 28.9402 21.6934 28.8342 22.0725 28.8342H22.4434C22.8225 28.8342 23.1274 28.9402 23.3582 29.1522C23.589 29.3805 23.7044 29.7393 23.7044 30.2285C23.7044 30.7015 23.589 31.0521 23.3582 31.2804C23.1274 31.5088 22.8225 31.6229 22.4434 31.6229H22.0725ZM28.0835 29.6659H29.0231C29.8637 29.6659 30.5643 29.5599 31.1247 29.3479C31.6851 29.1359 32.1384 28.8342 32.4845 28.4428C32.8307 28.0677 33.0779 27.6111 33.2263 27.0729C33.3746 26.5347 33.4488 25.9313 33.4488 25.2627C33.4488 24.8224 33.4241 24.3657 33.3746 23.8928C33.3252 23.4198 33.2593 22.9469 33.1768 22.474L32.6576 19.514L34.7839 19.1226L35.1301 21.1775C35.4103 22.7593 35.5504 24.1129 35.5504 25.2382C35.5504 26.2493 35.4268 27.187 35.1795 28.0514C34.9488 28.932 34.5697 29.6985 34.0422 30.3508C33.5147 31.0032 32.839 31.5088 32.0148 31.8675C31.1906 32.2426 30.2016 32.4302 29.0478 32.4302H28.0835V29.6659ZM42.7521 26.5592C41.1367 26.5592 39.9747 26.233 39.2659 25.5807C38.5571 24.912 38.2027 23.8031 38.2027 22.2538V8.45703H40.5022V22.0336C40.5022 22.7186 40.6587 23.1834 40.9719 23.428C41.3015 23.6726 41.8373 23.7949 42.579 23.7949H43.395V25.9721L42.7768 26.5592H42.7521ZM42.8089 24.382L43.4023 23.7949H46.0478V25.9721L45.4545 26.5592H42.8089V24.382ZM45.4648 24.382L46.0582 23.7949H48.7038V25.9721L48.1104 26.5592H45.4648V24.382ZM48.1208 24.382L48.7142 23.7949H51.3598V25.9721L50.7664 26.5592H48.1208V24.382ZM50.7768 24.382L51.3702 23.7949H54.5597L54.6092 23.6726C53.1257 22.4169 52.384 20.941 52.384 19.2449C52.384 18.56 52.4911 17.9158 52.7054 17.3124C52.9361 16.709 53.2575 16.179 53.6696 15.7224C54.0817 15.2657 54.5679 14.9069 55.1284 14.646C55.7053 14.3851 56.3399 14.2546 57.0322 14.2546C57.7245 14.2546 58.3508 14.3851 58.9113 14.646C59.4882 14.9069 59.9745 15.2657 60.3701 15.7224C60.7821 16.1627 61.1035 16.6927 61.3343 17.3124C61.565 17.9158 61.6805 18.56 61.6805 19.2449C61.6805 20.9247 60.9387 22.4006 59.4552 23.6726L59.5047 23.7949H62.7189V25.9721L62.1255 26.5592H61.8288C60.9552 26.5592 60.1145 26.4613 59.3069 26.2656C58.5157 26.0536 57.7574 25.7112 57.0322 25.2382C56.3234 25.7112 55.5652 26.0536 54.7575 26.2656C53.9498 26.4613 53.1174 26.5592 52.2603 26.5592H50.7768V24.382ZM57.0322 23.2323C57.8729 22.7757 58.5239 22.2538 58.9855 21.6667C59.447 21.0796 59.6778 20.3947 59.6778 19.6119C59.6778 18.8291 59.4387 18.2012 58.9607 17.7283C58.4992 17.2553 57.8976 17.0189 57.1558 17.0189H56.8839C56.1421 17.0189 55.5322 17.2553 55.0542 17.7283C54.5927 18.2012 54.3619 18.8291 54.3619 19.6119C54.3619 20.3947 54.5927 21.0796 55.0542 21.6667C55.5322 22.2538 56.1916 22.7757 57.0322 23.2323ZM58.5404 11.7595C58.1613 11.7595 57.8563 11.6453 57.6256 11.417C57.4113 11.1886 57.3042 10.8381 57.3042 10.3651C57.3042 9.87585 57.4113 9.5252 57.6256 9.31321C57.8563 9.08487 58.1613 8.97074 58.5404 8.97074H58.9113C59.2904 8.97074 59.5953 9.08487 59.8261 9.31321C60.0568 9.5252 60.1723 9.87585 60.1723 10.3651C60.1723 10.8381 60.0568 11.1886 59.8261 11.417C59.5953 11.6453 59.2904 11.7595 58.9113 11.7595H58.5404ZM55.0542 11.7595C54.6751 11.7595 54.3701 11.6453 54.1394 11.417C53.9251 11.1886 53.818 10.8381 53.818 10.3651C53.818 9.87585 53.9251 9.5252 54.1394 9.31321C54.3701 9.08487 54.6751 8.97074 55.0542 8.97074H55.4251C55.8042 8.97074 56.1091 9.08487 56.3399 9.31321C56.5706 9.5252 56.6861 9.87585 56.6861 10.3651C56.6861 10.8381 56.5706 11.1886 56.3399 11.417C56.1091 11.6453 55.8042 11.7595 55.4251 11.7595H55.0542ZM62.1251 24.382L62.7189 23.7949H65.364V25.9721L64.7706 26.5592H62.1255L62.1251 24.382ZM64.7811 24.382L65.3745 23.7949H65.8937C67.0145 23.7949 67.8057 23.6726 68.2673 23.428C68.7288 23.1671 68.9596 22.7023 68.9596 22.0336C68.9596 21.7564 68.9349 21.4058 68.8854 20.9818C68.8524 20.5577 68.7782 19.9951 68.6629 19.2939L68.2673 17.1656L70.4183 16.8232L70.7398 18.9514C70.9376 20.2561 71.0365 21.2835 71.0365 22.0336C71.0365 23.5666 70.6161 24.7082 69.7755 25.4584C68.9349 26.1922 67.6409 26.5592 65.8937 26.5592H64.7811V24.382ZM70.542 14.328C70.1628 14.328 69.8579 14.2139 69.6272 13.9855C69.4128 13.7572 69.3057 13.4066 69.3057 12.9336C69.3057 12.4444 69.4128 12.0937 69.6272 11.8818C69.8579 11.6534 70.1628 11.5393 70.542 11.5393H70.9128C71.2922 11.5393 71.5967 11.6534 71.8277 11.8818C72.0587 12.0937 72.1738 12.4444 72.1738 12.9336C72.1738 13.4066 72.0587 13.7572 71.8277 13.9855C71.5967 14.2139 71.2922 14.328 70.9128 14.328H70.542ZM67.0558 14.328C66.6766 14.328 66.3717 14.2139 66.141 13.9855C65.9266 13.7572 65.8195 13.4066 65.8195 12.9336C65.8195 12.4444 65.9266 12.0937 66.141 11.8818C66.3717 11.6534 66.6766 11.5393 67.0558 11.5393H67.4267C67.8057 11.5393 68.1107 11.6534 68.3415 11.8818C68.5722 12.0937 68.6876 12.4444 68.6876 12.9336C68.6876 13.4066 68.5722 13.7572 68.3415 13.9855C68.1107 14.2139 67.8057 14.328 67.4267 14.328H67.0558Z" fill="black"/>
<path d="M6.95126 43.5292V56.613H5.17108V43.5292H0.466309V41.9775H11.656V43.5292H6.95126ZM20.3864 56.613C19.7506 56.613 19.2915 56.4453 19.0089 56.1098C18.7405 55.7743 18.5709 55.355 18.5003 54.8517H18.3943C18.1541 55.5227 17.7585 56.0259 17.2075 56.3614C16.6565 56.6969 15.9995 56.8646 15.2366 56.8646C14.0781 56.8646 13.1739 56.5711 12.5239 55.984C11.8882 55.3969 11.5703 54.6001 11.5703 53.5937C11.5703 52.5732 11.9447 51.7904 12.6935 51.2453C13.4564 50.7001 14.6361 50.4275 16.2327 50.4275H18.3943V49.3582C18.3943 48.5894 18.1824 48.0023 17.7585 47.5969C17.3347 47.1915 16.6848 46.9888 15.8088 46.9888C15.1448 46.9888 14.5867 47.1356 14.1346 47.4292C13.6966 47.7227 13.3293 48.1141 13.0326 48.6033L12.0153 47.6598C12.312 47.0727 12.7853 46.5765 13.4352 46.1711C14.0851 45.7517 14.9046 45.5421 15.8936 45.5421C17.2217 45.5421 18.253 45.8636 18.9877 46.5066C19.7224 47.1496 20.0897 48.0442 20.0897 49.1904V55.1453H21.3401V56.613H20.3864ZM15.5121 55.4388C15.936 55.4388 16.3245 55.3899 16.6777 55.2921C17.0309 55.1942 17.3347 55.0544 17.589 54.8727C17.8433 54.691 18.0411 54.4813 18.1824 54.2437C18.3237 54.006 18.3943 53.7474 18.3943 53.4679V51.6856H16.1479C15.173 51.6856 14.4595 51.8254 14.0074 52.105C13.5694 52.3845 13.3505 52.7899 13.3505 53.3211V53.7614C13.3505 54.2926 13.5412 54.705 13.9227 54.9985C14.3183 55.2921 14.8481 55.4388 15.5121 55.4388ZM32.9787 57.8082C32.9787 58.9265 32.5336 59.7442 31.6435 60.2614C30.7676 60.7926 29.4466 61.0582 27.6805 61.0582C25.971 61.0582 24.7418 60.8275 23.993 60.3662C23.2442 59.905 22.8698 59.248 22.8698 58.3953C22.8698 57.8082 23.0252 57.3469 23.336 57.0114C23.6468 56.6899 24.0707 56.4523 24.6076 56.2985V56.0679C23.9577 55.7603 23.6327 55.2571 23.6327 54.5582C23.6327 54.013 23.8093 53.6007 24.1625 53.3211C24.5157 53.0275 24.9679 52.8109 25.5189 52.6711V52.5872C24.869 52.2797 24.3603 51.8394 23.993 51.2662C23.6398 50.6931 23.4632 50.0292 23.4632 49.2743C23.4632 48.7292 23.5621 48.2259 23.7599 47.7646C23.9577 47.3033 24.2332 46.9119 24.5864 46.5904C24.9537 46.255 25.3846 45.9964 25.8791 45.8146C26.3878 45.6329 26.9529 45.5421 27.5745 45.5421C28.3516 45.5421 29.0439 45.6818 29.6514 45.9614V45.7727C29.6514 45.3533 29.7503 45.0109 29.9481 44.7453C30.1459 44.4657 30.4709 44.3259 30.923 44.3259H32.5548V45.7937H30.4779V46.4856C30.8735 46.8211 31.1773 47.2265 31.3892 47.7017C31.6153 48.163 31.7283 48.6872 31.7283 49.2743C31.7283 49.8195 31.6294 50.3227 31.4316 50.784C31.2338 51.2453 30.9512 51.6437 30.5839 51.9792C30.2307 52.3007 29.7998 52.5523 29.2912 52.734C28.7825 52.9157 28.2174 53.0066 27.5957 53.0066C27.2425 53.0066 26.8893 52.9716 26.5361 52.9017C26.1688 52.9996 25.8367 53.1464 25.5401 53.3421C25.2434 53.5238 25.095 53.7824 25.095 54.1179C25.095 54.4394 25.2504 54.656 25.5612 54.7679C25.8721 54.8797 26.2747 54.9356 26.7692 54.9356H29.1004C30.4567 54.9356 31.4387 55.1942 32.0462 55.7114C32.6679 56.2146 32.9787 56.9136 32.9787 57.8082ZM31.3892 57.934C31.3892 57.5007 31.2197 57.1512 30.8806 56.8856C30.5556 56.634 29.9693 56.5082 29.1216 56.5082H25.4765C24.7983 56.8157 24.4592 57.305 24.4592 57.9759C24.4592 58.4512 24.6358 58.8566 24.989 59.1921C25.3564 59.5275 25.971 59.6953 26.8328 59.6953H28.4011C29.3477 59.6953 30.0823 59.5485 30.6051 59.255C31.1279 58.9614 31.3892 58.5211 31.3892 57.934ZM27.5957 51.6646C28.3163 51.6646 28.8885 51.4969 29.3123 51.1614C29.7362 50.8119 29.9481 50.2808 29.9481 49.5679V48.9808C29.9481 48.2679 29.7362 47.7437 29.3123 47.4082C28.8885 47.0587 28.3163 46.884 27.5957 46.884C26.8752 46.884 26.303 47.0587 25.8791 47.4082C25.4553 47.7437 25.2434 48.2679 25.2434 48.9808V49.5679C25.2434 50.2808 25.4553 50.8119 25.8791 51.1614C26.303 51.4969 26.8752 51.6646 27.5957 51.6646ZM42.8415 56.613C42.2057 56.613 41.7466 56.4453 41.464 56.1098C41.1956 55.7743 41.026 55.355 40.9554 54.8517H40.8494C40.6092 55.5227 40.2136 56.0259 39.6626 56.3614C39.1116 56.6969 38.4546 56.8646 37.6917 56.8646C36.5332 56.8646 35.629 56.5711 34.9791 55.984C34.3433 55.3969 34.0254 54.6001 34.0254 53.5937C34.0254 52.5732 34.3998 51.7904 35.1486 51.2453C35.9115 50.7001 37.0913 50.4275 38.6878 50.4275H40.8494V49.3582C40.8494 48.5894 40.6375 48.0023 40.2136 47.5969C39.7898 47.1915 39.1399 46.9888 38.2639 46.9888C37.5999 46.9888 37.0418 47.1356 36.5897 47.4292C36.1517 47.7227 35.7844 48.1141 35.4877 48.6033L34.4704 47.6598C34.7671 47.0727 35.2404 46.5765 35.8903 46.1711C36.5402 45.7517 37.3597 45.5421 38.3487 45.5421C39.6768 45.5421 40.7081 45.8636 41.4428 46.5066C42.1775 47.1496 42.5448 48.0442 42.5448 49.1904V55.1453H43.7952V56.613H42.8415ZM37.9672 55.4388C38.3911 55.4388 38.7796 55.3899 39.1328 55.2921C39.486 55.1942 39.7898 55.0544 40.0441 54.8727C40.2984 54.691 40.4962 54.4813 40.6375 54.2437C40.7788 54.006 40.8494 53.7474 40.8494 53.4679V51.6856H38.603C37.6281 51.6856 36.9146 51.8254 36.4625 52.105C36.0246 52.3845 35.8056 52.7899 35.8056 53.3211V53.7614C35.8056 54.2926 35.9963 54.705 36.3778 54.9985C36.7734 55.2921 37.3032 55.4388 37.9672 55.4388ZM46.215 56.613V45.7937H47.9104V47.7856H48.0163C48.2141 47.2684 48.5674 46.8071 49.076 46.4017C49.5846 45.9964 50.284 45.7937 51.1741 45.7937H51.831V47.4711H50.835C49.9166 47.4711 49.1961 47.6458 48.6733 47.9953C48.1647 48.3308 47.9104 48.7571 47.9104 49.2743V56.613H46.215ZM58.0045 56.8646C57.2557 56.8646 56.5775 56.7318 55.97 56.4662C55.3766 56.2007 54.8609 55.8232 54.423 55.334C53.9991 54.8308 53.6671 54.2367 53.4269 53.5517C53.2009 52.8528 53.0878 52.07 53.0878 51.2033C53.0878 50.3507 53.2009 49.5749 53.4269 48.8759C53.6671 48.177 53.9991 47.5829 54.423 47.0937C54.8609 46.5904 55.3766 46.206 55.97 45.9404C56.5775 45.6749 57.2557 45.5421 58.0045 45.5421C58.7392 45.5421 59.3962 45.6749 59.9754 45.9404C60.5547 46.206 61.0492 46.5765 61.4589 47.0517C61.8686 47.513 62.1795 48.0652 62.3914 48.7082C62.6175 49.3512 62.7305 50.0571 62.7305 50.8259V51.6227H54.868V52.1259C54.868 52.5872 54.9386 53.0206 55.0799 53.4259C55.2353 53.8173 55.4473 54.1598 55.7157 54.4533C55.9983 54.7469 56.3374 54.9775 56.733 55.1453C57.1427 55.313 57.6019 55.3969 58.1105 55.3969C58.8028 55.3969 59.4032 55.2361 59.9119 54.9146C60.4346 54.5931 60.8373 54.1318 61.1198 53.5308L62.3278 54.3904C61.9746 55.1313 61.4236 55.7324 60.6748 56.1937C59.926 56.641 59.0359 56.8646 58.0045 56.8646ZM58.0045 46.9469C57.5383 46.9469 57.1144 47.0308 56.733 47.1985C56.3515 47.3523 56.0195 47.5759 55.7369 47.8695C55.4685 48.163 55.2565 48.5125 55.1011 48.9179C54.9457 49.3093 54.868 49.7426 54.868 50.2179V50.3646H60.9079V50.134C60.9079 49.1695 60.6395 48.4007 60.1026 47.8275C59.5798 47.2404 58.8805 46.9469 58.0045 46.9469ZM65.5243 56.613V45.7937H67.2197V47.7856H67.3257C67.5235 47.2684 67.8767 46.8071 68.3853 46.4017C68.8939 45.9964 69.5933 45.7937 70.4834 45.7937H71.1403V47.4711H70.1443C69.226 47.4711 68.5054 47.6458 67.9827 47.9953C67.474 48.3308 67.2197 48.7571 67.2197 49.2743V56.613H65.5243Z" fill="black" fill-opacity="0.6"/>
<path d="M121.392 37.8189C124.228 37.8189 126.527 35.5439 126.527 32.7377C126.527 29.9314 124.228 27.6565 121.392 27.6565C118.555 27.6565 116.256 29.9314 116.256 32.7377C116.256 35.5439 118.555 37.8189 121.392 37.8189Z" fill="#CFD324"/>
<path d="M102.445 56.9972C105.551 56.9972 108.069 54.5064 108.069 51.4338C108.069 48.3612 105.551 45.8704 102.445 45.8704C99.34 45.8704 96.8223 48.3612 96.8223 51.4338C96.8223 54.5064 99.34 56.9972 102.445 56.9972Z" fill="#004136"/>
<path d="M94.6324 38.266C97.7378 38.266 100.256 35.7752 100.256 32.7026C100.256 29.63 97.7378 27.1392 94.6324 27.1392C91.527 27.1392 89.0093 29.63 89.0093 32.7026C89.0093 35.7752 91.527 38.266 94.6324 38.266Z" fill="#004136"/>
<path d="M102.502 19.5558C105.607 19.5558 108.125 17.065 108.125 13.9924C108.125 10.9198 105.607 8.42896 102.502 8.42896C99.3964 8.42896 96.8787 10.9198 96.8787 13.9924C96.8787 17.065 99.3964 19.5558 102.502 19.5558Z" fill="#004136"/>
<path d="M121.434 11.8259C124.539 11.8259 127.057 9.33503 127.057 6.26242C127.057 3.18981 124.539 0.698975 121.434 0.698975C118.328 0.698975 115.811 3.18981 115.811 6.26242C115.811 9.33503 118.328 11.8259 121.434 11.8259Z" fill="#004136"/>
<path d="M140.345 19.6049C143.45 19.6049 145.968 17.1141 145.968 14.0415C145.968 10.9689 143.45 8.47803 140.345 8.47803C137.239 8.47803 134.722 10.9689 134.722 14.0415C134.722 17.1141 137.239 19.6049 140.345 19.6049Z" fill="#004136"/>
<path d="M148.158 38.3361C151.263 38.3361 153.781 35.8453 153.781 32.7727C153.781 29.7001 151.263 27.2092 148.158 27.2092C145.052 27.2092 142.535 29.7001 142.535 32.7727C142.535 35.8453 145.052 38.3361 148.158 38.3361Z" fill="#004136"/>
<path d="M140.295 57.0463C143.401 57.0463 145.919 54.5555 145.919 51.4829C145.919 48.4103 143.401 45.9194 140.295 45.9194C137.19 45.9194 134.672 48.4103 134.672 51.4829C134.672 54.5555 137.19 57.0463 140.295 57.0463Z" fill="#004136"/>
<path d="M121.356 64.7763C124.462 64.7763 126.979 62.2855 126.979 59.2129C126.979 56.1402 124.462 53.6494 121.356 53.6494C118.251 53.6494 115.733 56.1402 115.733 59.2129C115.733 62.2855 118.251 64.7763 121.356 64.7763Z" fill="#004136"/>
</g>
<defs>
<clipPath id="clip0_346_625">
<rect width="154" height="65" fill="white"/>
</clipPath>
</defs>
</svg>
