<svg width="105" height="106" viewBox="0 0 105 106" fill="none" xmlns="http://www.w3.org/2000/svg">
<rect width="105" height="106.01" rx="20" fill="#004136" fill-opacity="0.1"/>
<path fill-rule="evenodd" clip-rule="evenodd" d="M37.1667 50.8941C37.1667 43.3126 43.2472 37.1667 50.7479 37.1667C54.3499 37.1667 57.8044 38.613 60.3514 41.1873C62.8983 43.7617 64.3292 47.2533 64.3292 50.8941C64.3292 58.4755 58.2487 64.6215 50.7479 64.6215C43.2472 64.6215 37.1667 58.4755 37.1667 50.8941ZM64.1045 61.9526L68.1494 65.2177H68.2196C69.0379 66.0448 69.0379 67.3859 68.2196 68.213C67.4013 69.0401 66.0745 69.0401 65.2562 68.213L61.8995 64.3659C61.5821 64.0463 61.4038 63.6121 61.4038 63.1593C61.4038 62.7065 61.5821 62.2723 61.8995 61.9526C62.5115 61.3448 63.4925 61.3448 64.1045 61.9526Z" fill="#004136"/>
</svg>
