<svg width="105" height="106" viewBox="0 0 105 106" fill="none" xmlns="http://www.w3.org/2000/svg">
<rect width="105" height="106.01" rx="20" fill="#004136" fill-opacity="0.1"/>
<path fill-rule="evenodd" clip-rule="evenodd" d="M53.0003 36.8125C51.288 36.8125 49.8277 37.9063 49.2866 39.4374C49.045 40.1208 48.2951 40.479 47.6117 40.2375C46.9282 39.9959 46.57 39.2461 46.8116 38.5626C47.7119 36.0155 50.1409 34.1875 53.0003 34.1875C55.8597 34.1875 58.2888 36.0155 59.1891 38.5626C59.4306 39.2461 59.0724 39.9959 58.389 40.2375C57.7055 40.479 56.9557 40.1208 56.7141 39.4374C56.173 37.9063 54.7127 36.8125 53.0003 36.8125Z" fill="#004136"/>
<path d="M56.5 53.875H49.5C49.0168 53.875 48.625 54.2668 48.625 54.75V58.5326C48.625 58.8904 48.8428 59.2121 49.175 59.345L50.4003 59.8351C52.0691 60.5027 53.9309 60.5027 55.5997 59.8351L56.825 59.345C57.1572 59.2121 57.375 58.8904 57.375 58.5326V54.75C57.375 54.2668 56.9832 53.875 56.5 53.875Z" fill="#004136"/>
<path d="M46.0188 58.896L37.2603 56.2684C37.3129 61.7188 37.6313 66.7383 39.5564 68.4495C41.8629 70.4997 45.5752 70.4997 52.9998 70.4997C60.4244 70.4997 64.1367 70.4997 66.4433 68.4495C68.3683 66.7383 68.6867 61.7188 68.7394 56.2685L59.9812 58.8959C59.8478 60.1782 59.0151 61.2962 57.7999 61.7823L56.5746 62.2724C54.2799 63.1902 51.7201 63.1902 49.4254 62.2724L48.2001 61.7823C46.9849 61.2962 46.1523 60.1782 46.0188 58.896Z" fill="#004136"/>
<path d="M45.3156 40.75H60.6844C64.9721 40.75 67.116 40.75 68.5635 41.9277C68.8417 42.1541 69.0959 42.4083 69.3223 42.6865C70.5 44.134 70.5 46.2779 70.5 50.5656C70.5 51.6536 70.5 52.1976 70.2361 52.622C70.1847 52.7047 70.1265 52.7829 70.0621 52.8559C69.7315 53.2306 69.2104 53.3869 68.1683 53.6995L60 56.15V54.75C60 52.817 58.433 51.25 56.5 51.25H49.5C47.567 51.25 46 52.817 46 54.75V56.15L37.8317 53.6995C36.7896 53.3869 36.2685 53.2306 35.9379 52.8559C35.8735 52.7829 35.8153 52.7047 35.7639 52.622C35.5 52.1976 35.5 51.6536 35.5 50.5656C35.5 46.2779 35.5 44.134 36.6777 42.6865C36.9041 42.4083 37.1583 42.1541 37.4365 41.9277C38.884 40.75 41.0279 40.75 45.3156 40.75Z" fill="#004136"/>
</svg>
