<svg width="105" height="106" viewBox="0 0 105 106" fill="none" xmlns="http://www.w3.org/2000/svg">
<rect width="105" height="106.01" rx="20" fill="#004136" fill-opacity="0.1"/>
<path fill-rule="evenodd" clip-rule="evenodd" d="M43.4517 36.5192C42.1022 36.6969 41.3876 37.022 40.8786 37.5207C40.3696 38.0194 40.0378 38.7195 39.8563 40.0416C39.6696 41.4026 39.6666 43.2064 39.6666 45.7928V60.0737C40.3144 59.6302 41.0445 59.2927 41.8316 59.0861C42.7119 58.855 43.7384 58.8553 45.2427 58.8558L66.3333 58.8558V45.7928C66.3333 43.2064 66.3304 41.4026 66.1436 40.0416C65.9622 38.7195 65.6303 38.0194 65.1213 37.5207C64.6123 37.022 63.8977 36.6969 62.5482 36.5192C61.1591 36.3362 59.318 36.3333 56.6781 36.3333H49.3218C46.682 36.3333 44.8408 36.3362 43.4517 36.5192ZM44.2643 43.991C44.2643 43.2446 44.8819 42.6396 45.6436 42.6396H60.3563C61.1181 42.6396 61.7356 43.2446 61.7356 43.991C61.7356 44.7373 61.1181 45.3423 60.3563 45.3423H45.6436C44.8819 45.3423 44.2643 44.7373 44.2643 43.991ZM45.6436 48.9459C44.8819 48.9459 44.2643 49.5509 44.2643 50.2973C44.2643 51.0436 44.8819 51.6486 45.6436 51.6486H54.839C55.6008 51.6486 56.2183 51.0436 56.2183 50.2973C56.2183 49.5509 55.6008 48.9459 54.839 48.9459H45.6436Z" fill="#004136"/>
<path d="M45.4556 61.5585H47.4827H54.839H66.3319C66.326 63.4429 66.296 64.848 66.1436 65.9583C65.9622 67.2804 65.6303 67.9806 65.1213 68.4792C64.6123 68.9779 63.8977 69.303 62.5482 69.4808C61.1591 69.6638 59.318 69.6666 56.6781 69.6666H49.3218C46.682 69.6666 44.8408 69.6638 43.4517 69.4808C42.1022 69.303 41.3876 68.9779 40.8786 68.4792C40.3696 67.9806 40.0378 67.2804 39.8563 65.9583C39.7876 65.4577 39.7438 64.897 39.7158 64.2596C40.1681 63.0074 41.2227 62.044 42.5456 61.6967C43.0276 61.5701 43.6565 61.5585 45.4556 61.5585Z" fill="#004136"/>
</svg>
