<svg width="105" height="106" viewBox="0 0 105 106" fill="none" xmlns="http://www.w3.org/2000/svg">
<rect width="105" height="106.01" rx="20" fill="#004136" fill-opacity="0.1"/>
<path fill-rule="evenodd" clip-rule="evenodd" d="M45.2173 36.334H60.7823C66.4506 36.334 69.6507 39.549 69.6673 45.2173V60.784C69.6673 66.4507 66.4506 69.6673 60.7823 69.6673H45.2173C39.549 69.6673 36.334 66.4507 36.334 60.784V45.2173C36.334 39.549 39.549 36.334 45.2173 36.334ZM53.0823 62.7673C53.8006 62.7673 54.399 62.234 54.4657 61.5173V44.534C54.5323 44.0173 54.284 43.499 53.834 43.2173C53.3657 42.934 52.799 42.934 52.3507 43.2173C51.899 43.499 51.6507 44.0173 51.699 44.534V61.5173C51.784 62.234 52.3823 62.7673 53.0823 62.7673ZM60.7507 62.7673C61.4507 62.7673 62.049 62.234 62.134 61.5173V56.0507C62.1823 55.5157 61.934 55.0173 61.4823 54.734C61.034 54.4507 60.4673 54.4507 60.0007 54.734C59.549 55.0173 59.3007 55.5157 59.3673 56.0507V61.5173C59.434 62.234 60.0323 62.7673 60.7507 62.7673ZM46.699 61.5173C46.6323 62.234 46.034 62.7673 45.3157 62.7673C44.599 62.7673 43.999 62.234 43.934 61.5173V50.0007C43.884 49.4823 44.1323 48.9673 44.584 48.684C45.0323 48.4007 45.6007 48.4007 46.0507 48.684C46.499 48.9673 46.7507 49.4823 46.699 50.0007V61.5173Z" fill="#004136"/>
</svg>
