<svg width="18" height="17" viewBox="0 0 18 17" fill="none" xmlns="http://www.w3.org/2000/svg">
<path fill-rule="evenodd" clip-rule="evenodd" d="M9.04095 11.953C8.76081 11.953 8.53345 11.7257 8.53345 11.4455V3.29778C8.53345 3.01764 8.76081 2.79028 9.04095 2.79028C9.32109 2.79028 9.54845 3.01764 9.54845 3.29778V11.4455C9.54845 11.7257 9.32109 11.953 9.04095 11.953Z" fill="#004136"/>
<path fill-rule="evenodd" clip-rule="evenodd" d="M9.04079 11.9531C8.90613 11.9531 8.77621 11.8997 8.68148 11.8036L6.70831 9.823C6.51073 9.62406 6.5114 9.30264 6.70967 9.10505C6.90861 8.90747 7.22935 8.90747 7.42694 9.10641L9.04079 10.727L10.6546 9.10641C10.8522 8.90747 11.173 8.90747 11.3719 9.10505C11.5702 9.30264 11.5708 9.62406 11.3733 9.823L9.4001 11.8036C9.30536 11.8997 9.17544 11.9531 9.04079 11.9531Z" fill="#004136"/>
<mask id="mask0_412_725" style="mask-type:luminance" maskUnits="userSpaceOnUse" x="2" y="5" width="14" height="11">
<path fill-rule="evenodd" clip-rule="evenodd" d="M2.27368 5.99268H15.8069V15.2928H2.27368V5.99268Z" fill="white"/>
</mask>
<g mask="url(#mask0_412_725)">
<path fill-rule="evenodd" clip-rule="evenodd" d="M12.8128 15.2928H5.2747C3.62025 15.2928 2.27368 13.9469 2.27368 12.2918V8.98625C2.27368 7.33518 3.61687 5.99268 5.26861 5.99268H5.90535C6.18549 5.99268 6.41285 6.22004 6.41285 6.50018C6.41285 6.78032 6.18549 7.00768 5.90535 7.00768H5.26861C4.17647 7.00768 3.28868 7.89479 3.28868 8.98625V12.2918C3.28868 13.3873 4.17918 14.2778 5.2747 14.2778H12.8128C13.9036 14.2778 14.792 13.3893 14.792 12.2985V8.99369C14.792 7.89817 13.9008 7.00768 12.8067 7.00768H12.176C11.8959 7.00768 11.6685 6.78032 11.6685 6.50018C11.6685 6.22004 11.8959 5.99268 12.176 5.99268H12.8067C14.4611 5.99268 15.807 7.33924 15.807 8.99369V12.2985C15.807 13.9496 14.4632 15.2928 12.8128 15.2928Z" fill="#004136"/>
</g>
</svg>
