<svg width="146" height="146" viewBox="0 0 146 146" fill="none" xmlns="http://www.w3.org/2000/svg">
<rect x="10" y="10.0002" width="126" height="126" rx="20" fill="#004136"/>
<rect x="5" y="5.00024" width="136" height="136" rx="25" stroke="#004136" stroke-opacity="0.1" stroke-width="10"/>
<path fill-rule="evenodd" clip-rule="evenodd" d="M66.0829 82.8775H78.2017C79.1151 82.8775 79.8725 82.1125 79.8725 81.19C79.8725 80.2675 79.1151 79.525 78.2017 79.525H66.0829C65.1696 79.525 64.4121 80.2675 64.4121 81.19C64.4121 82.1125 65.1696 82.8775 66.0829 82.8775ZM73.6126 68.275H66.0829C65.1696 68.275 64.4121 69.04 64.4121 69.9625C64.4121 70.885 65.1696 71.6275 66.0829 71.6275H73.6126C74.526 71.6275 75.2834 70.885 75.2834 69.9625C75.2834 69.04 74.526 68.275 73.6126 68.275ZM89.5107 66.3076C90.0343 66.3016 90.6045 66.295 91.1225 66.295C91.6795 66.295 92.125 66.745 92.125 67.3075V85.3975C92.125 90.9775 87.6473 95.5 82.1225 95.5H64.3899C58.5978 95.5 53.875 90.7525 53.875 84.9025V60.6475C53.875 55.0675 58.375 50.5 63.922 50.5H75.8181C76.3973 50.5 76.8428 50.9725 76.8428 51.535V58.78C76.8428 62.8975 80.2067 66.2725 84.2834 66.295C85.2357 66.295 86.0751 66.3021 86.8098 66.3083C87.3814 66.3132 87.8895 66.3175 88.3379 66.3175C88.655 66.3175 89.066 66.3128 89.5107 66.3076ZM90.125 63.0235C88.2938 63.0303 86.1351 63.0235 84.5824 63.0078C82.1185 63.0078 80.0891 60.958 80.0891 58.4695V52.5385C80.0891 51.5687 81.2542 51.0872 81.9202 51.787C83.1254 53.0526 84.7814 54.7922 86.43 56.5239C88.0756 58.2526 89.7139 59.9736 90.8891 61.2078C91.5396 61.8895 91.0628 63.0212 90.125 63.0235Z" fill="white"/>
</svg>
