<svg width="19" height="20" viewBox="0 0 19 20" fill="none" xmlns="http://www.w3.org/2000/svg">
<path fill-rule="evenodd" clip-rule="evenodd" d="M9.27988 8.056C8.25135 8.056 7.41537 8.89274 7.41537 9.92128C7.41537 10.949 8.25135 11.785 9.27988 11.785C10.3084 11.785 11.1452 10.949 11.1452 9.92128C11.1452 8.89274 10.3084 8.056 9.27988 8.056ZM9.27988 12.945C7.6118 12.945 6.25537 11.5886 6.25537 9.92128C6.25537 8.2532 7.6118 6.896 9.27988 6.896C10.948 6.896 12.3052 8.2532 12.3052 9.92128C12.3052 11.5886 10.948 12.945 9.27988 12.945Z" fill="#004136"/>
<mask id="mask0_412_742" style="mask-type:luminance" maskUnits="userSpaceOnUse" x="1" y="3" width="17" height="14">
<path fill-rule="evenodd" clip-rule="evenodd" d="M1.54688 3.6936H17.0134V16.1481H1.54688V3.6936Z" fill="white"/>
</mask>
<g mask="url(#mask0_412_742)">
<path fill-rule="evenodd" clip-rule="evenodd" d="M2.76082 9.92082C4.19922 13.0984 6.62207 14.9877 9.28002 14.9885C11.938 14.9877 14.3608 13.0984 15.7992 9.92082C14.3608 6.74397 11.938 4.85471 9.28002 4.85394C6.62284 4.85471 4.19922 6.74397 2.76082 9.92082ZM9.28156 16.1485H9.27847H9.2777C6.07919 16.1462 3.20703 13.9043 1.59386 10.1497C1.53121 10.0036 1.53121 9.83807 1.59386 9.69191C3.20703 5.93815 6.07996 3.69626 9.2777 3.69394C9.27924 3.69317 9.27924 3.69317 9.28002 3.69394C9.28156 3.69317 9.28156 3.69317 9.28234 3.69394C12.4808 3.69626 15.353 5.93815 16.9662 9.69191C17.0296 9.83807 17.0296 10.0036 16.9662 10.1497C15.3538 13.9043 12.4808 16.1462 9.28234 16.1485H9.28156Z" fill="#004136"/>
</g>
</svg>
