<svg width="43" height="44" viewBox="0 0 43 44" fill="none" xmlns="http://www.w3.org/2000/svg">
<rect width="43" height="43.4135" rx="10" fill="#004136" fill-opacity="0.1"/>
<g clip-path="url(#clip0_105_2004)">
<path fill-rule="evenodd" clip-rule="evenodd" d="M12 21.5C12 18.9804 13.0009 16.5641 14.7825 14.7825C16.5641 13.0009 18.9804 12 21.5 12C24.0196 12 26.4359 13.0009 28.2175 14.7825C29.9991 16.5641 31 18.9804 31 21.5C31 24.0196 29.9991 26.4359 28.2175 28.2175C26.4359 29.9991 24.0196 31 21.5 31C18.9804 31 16.5641 29.9991 14.7825 28.2175C13.0009 26.4359 12 24.0196 12 21.5ZM20.9579 25.566L26.4273 18.7285L25.4393 17.9381L20.7755 23.7661L17.472 21.0136L16.6613 21.9864L20.9579 25.566Z" fill="#004136"/>
</g>
<defs>
<clipPath id="clip0_105_2004">
<rect width="19" height="19" fill="white" transform="translate(12 12)"/>
</clipPath>
</defs>
</svg>
