<svg width="17" height="18" viewBox="0 0 17 18" fill="none" xmlns="http://www.w3.org/2000/svg">
<path d="M8.51425 15.7721C12.1321 15.7721 15.0522 12.8379 15.0522 9.20589C15.0522 5.58807 12.1321 2.66797 8.51425 2.66797M8.51425 15.7721C4.88227 15.7721 1.948 12.8379 1.948 9.20589C1.948 5.58807 4.88227 2.66797 8.51425 2.66797M8.51425 15.7721V2.66797M14.1852 5.94401H2.81925M14.2216 12.4164H2.78277M1.98341 9.22005H15.0167" stroke="#004136" stroke-width="0.8" stroke-linecap="round" stroke-linejoin="round"/>
<path d="M8.507 15.7721C10.3161 15.7721 11.776 12.8379 11.776 9.20589C11.776 5.58807 10.3161 2.66797 8.507 2.66797C6.69084 2.66797 5.22388 5.58807 5.22388 9.20589C5.22388 12.8379 6.69084 15.7721 8.507 15.7721Z" stroke="#004136" stroke-width="0.8" stroke-linecap="round" stroke-linejoin="round"/>
</svg>
