<svg width="33" height="38" viewBox="0 0 33 38" fill="none" xmlns="http://www.w3.org/2000/svg">
<g clip-path="url(#clip0_107_665)">
<path d="M5.24746 2.99023C2.72077 2.99023 0.666504 5.06426 0.666504 7.61523V30.7402C0.666504 33.2912 2.72077 35.3652 5.24746 35.3652H28.1522C30.6789 35.3652 32.7332 33.2912 32.7332 30.7402V7.61523C32.7332 5.06426 30.6789 2.99023 28.1522 2.99023H5.24746ZM26.5131 9.06055L19.0834 17.6313L27.823 29.2949H20.9802L15.6262 22.2201L9.49199 29.2949H6.09207L14.0372 20.1244L5.65545 9.06055H12.67L17.5158 15.5283L23.1132 9.06055H26.5131ZM23.8075 27.2426L11.6465 11.0045H9.62083L21.9178 27.2426H23.8003H23.8075Z" fill="white"/>
</g>
<defs>
<clipPath id="clip0_107_665">
<rect width="32.0667" height="37" fill="white" transform="translate(0.666504 0.677734)"/>
</clipPath>
</defs>
</svg>
