<?xml version="1.0" encoding="utf-8"?>
<!-- Generator: Adobe Illustrator 22.0.1, SVG Export Plug-In . SVG Version: 6.00 Build 0)  -->
<svg version="1.1" id="Layer_1" xmlns="http://www.w3.org/2000/svg" xmlns:xlink="http://www.w3.org/1999/xlink" x="0px" y="0px"
	 viewBox="0 0 1000 1000" style="enable-background:new 0 0 1000 1000;" xml:space="preserve">
<style type="text/css">
	.st0{fill:#005C4F;}
	.st1{fill:#006354;}
	.st2{fill:#006B59;}
	.st3{fill:#00735E;}
	.st4{fill:#007D63;}
	.st5{fill:#008769;}
	.st6{fill:#0A8F6E;}
	.st7{fill:#1F9973;}
	.st8{fill:#2BA378;}
	.st9{fill:#38AB7D;}
	.st10{fill:#42BA82;}
</style>
<g>
	<polygon class="st0" points="99.8,580.6 109.3,580.6 122.9,601.1 123.3,602.1 123.5,601.1 137.2,580.6 142.3,580.6 142.3,619.7 
		136.8,619.7 136.8,589 136.3,590.5 124.8,607.3 121.6,607.3 110.2,590.5 109.7,589.3 109.7,619.7 104.2,619.7 104.2,584.5 
		99.8,583.3 	"/>
	<path class="st0" d="M158.4,583.9l-4.5,2.8l-2.7-4.6l4.6-2.7L158.4,583.9z M157.5,592.5v27.2h-5.2v-23.8l-3.3-0.9v-2.4H157.5z"/>
	<g>
		<path class="st0" d="M191.8,601.3v18.4h-5.2v-17.1c0-4-1.7-6-5.3-6.2c-2.7-0.2-5.8,1.4-9.4,4.6v18.7h-5.2v-23.8l-3.3-1v-2.4h8
			l0.4,4.6c3.8-3.6,7.6-5.4,11.4-5.4C188.2,591.8,191.8,595.1,191.8,601.3"/>
	</g>
	<path class="st0" d="M206.8,583.9l-4.5,2.8l-2.7-4.6l4.6-2.7L206.8,583.9z M205.9,592.5v27.2h-5.2v-23.8l-3.3-0.9v-2.4H205.9z"/>
	<g>
		<path class="st0" d="M225,620.2c-4.2,0.6-9-0.1-13.1-1.8l1-3.9c6.5,2.3,14.4,3,14.6-2c0-1.1-0.4-2-2-2.8c-0.8-0.4-1.5-0.8-2-1
			c-0.6-0.2-1.6-0.6-3-1.1c-5.5-2-8.4-4-8.2-8.1c0.2-8.4,12.2-8.9,19.1-5.8l-1,3.9c-5.4-2.3-13.2-2.2-13.1,1.8
			c0,1.4,0.8,2.2,2.3,2.9c1.1,0.6,1.5,0.7,3.1,1.2c0.8,0.3,1.3,0.5,1.7,0.7c5.4,2,8.3,4,8.1,8.4C232.2,616.8,229.1,619.6,225,620.2"
			/>
		<path class="st0" d="M252.9,619.3c-4.5,1.5-7.8,1.5-10-0.2c-2.2-1.6-3.4-4-3.4-7.3v-15.4h-4.6v-2.4l4.6-1.9V586h5.3v6.5h5.7v4
			h-5.7v14.7c0,4.1,1.8,5.8,7.2,4.1L252.9,619.3z"/>
		<path class="st0" d="M263.7,597c3.9-4.1,6.6-6,10.8-5l-0.5,4.6c-3.7-0.7-6.2,1.1-10.1,5.2v17.9h-5.3v-23.8l-3.3-1v-2.4h8
			L263.7,597z"/>
	</g>
	<polygon class="st0" points="299.3,592.5 304.7,592.5 289.3,631.6 283.8,631.6 289.6,617.6 287.5,617.6 276.9,592.5 282.2,592.5 
		291.1,613.7 	"/>
	<g>
		<path class="st0" d="M334.9,616.1c2.5,0,4.5-0.9,6.1-2.7c1.6-1.8,2.3-4.3,2.3-7.4s-0.8-5.5-2.3-7.3c-1.6-1.8-3.6-2.7-6.1-2.7
			c-2.6,0-4.6,0.9-6.1,2.7c-1.6,1.8-2.3,4.2-2.3,7.3s0.8,5.6,2.3,7.4C330.4,615.2,332.4,616.1,334.9,616.1 M334.9,620.3
			c-4.1,0-7.3-1.4-9.9-4c-2.6-2.7-3.9-6.1-3.9-10.3c0-4.2,1.3-7.6,3.9-10.3c2.6-2.7,5.8-4,9.9-4c4.1,0,7.4,1.3,9.9,4
			c2.6,2.7,3.9,6.1,3.9,10.3c0,4.2-1.3,7.7-3.9,10.3C342.3,619,339,620.3,334.9,620.3"/>
		<path class="st0" d="M370.1,581.5c-6.6-1.7-8.7,0.2-8.7,4.2v6.8h6.8v4h-6.8v23.1h-5.2v-23.1H352v-4h4.2v-6.7
			c0-3.5,1.1-6.2,3.5-7.9c2.3-1.7,6.1-1.8,11.5-0.4L370.1,581.5z"/>
	</g>
	<polygon class="st0" points="414.9,585.1 396.8,585.1 396.8,599.4 411.5,599.4 411.5,603.9 396.8,603.9 396.8,619.7 391.3,619.7 
		391.3,584.6 386.8,583.3 386.8,580.6 414.9,580.6 	"/>
	<path class="st0" d="M428.5,583.9l-4.5,2.8l-2.7-4.6l4.6-2.7L428.5,583.9z M427.6,592.5v27.2h-5.2v-23.8l-3.3-0.9v-2.4H427.6z"/>
	<g>
		<path class="st0" d="M462,601.3v18.4h-5.2v-17.1c0-4-1.7-6-5.3-6.2c-2.7-0.2-5.8,1.4-9.4,4.6v18.7h-5.2v-23.8l-3.3-1v-2.4h8
			l0.4,4.6c3.8-3.6,7.6-5.4,11.4-5.4C458.4,591.8,462,595.1,462,601.3"/>
		<path class="st0" d="M485.3,612.3l0.1-5.5c-7.1-0.4-10.1-0.2-11.7,2c-1.7,2-1.4,7.1,3,7.6C479.1,616.6,482,615.2,485.3,612.3
			 M469.3,617.4c-1.4-1.8-2-3.9-1.8-6c0.2-2.1,0.8-3.8,1.9-5c1.4-1.6,3.2-2.6,5.6-3c2.4-0.3,5.9-0.4,10.4-0.2v-3.1
			c0-4.3-4.4-5.2-13.3-2.7l-1-3.9c4.4-1.5,8.6-2,12.7-1.6c4.1,0.4,6.7,3,6.7,7.4l-0.1,17l3.4,0.9v2.4h-8l-0.3-4.1
			c-3.5,3.3-6.3,5.1-10.1,4.9C472.7,620.3,470.7,619.3,469.3,617.4"/>
		<path class="st0" d="M525.4,601.3v18.4h-5.2v-17.1c0-4-1.7-6-5.3-6.2c-2.7-0.2-5.8,1.4-9.4,4.6v18.7h-5.2v-23.8l-3.3-1v-2.4h8
			l0.4,4.6c3.8-3.6,7.6-5.4,11.4-5.4C521.8,591.8,525.4,595.1,525.4,601.3"/>
		<path class="st0" d="M535.1,616.5c-2.4-2.7-3.6-6.1-3.6-10.5c0-4.3,1.2-7.7,3.5-10.4c2.3-2.6,5.4-3.9,9.3-3.9
			c3.3,0,6.4,0.9,9.3,2.8l-0.9,3.7c-3-1.7-5.6-2.4-7.8-2.3c-5,0.1-8.1,4-8.1,10.1c0,6,3.1,9.9,8.3,10.2c2.6,0.1,5.3-0.7,8.3-2.2
			l0.9,3.7c-3.1,1.7-6.4,2.7-9.8,2.7C540.7,620.5,537.5,619.2,535.1,616.5"/>
		<path class="st0" d="M577.9,603.5c0.4-4.3-1.3-7.4-6.4-7.5c-4.3,0-7.2,2.9-7.7,7.5H577.9z M561.9,616.3c-2.3-2.7-3.5-6.1-3.5-10.3
			c0-4.3,1.2-7.7,3.6-10.4c2.4-2.7,5.6-4,9.5-3.9c10,0,12.3,8,10.8,15.3h-18.7c0.1,5.8,3.3,9,9.1,9c2.8,0,5.6-0.8,8.4-2.2l0.9,3.6
			c-2.7,2-6.1,3-10.1,3C567.6,620.4,564.3,619,561.9,616.3"/>
	</g>
	<polygon class="st0" points="511.5,475.2 511.5,478.7 506.7,480 506.7,536.6 499.1,536.6 499.1,475.2 	"/>
	<polygon class="st0" points="535.2,484.6 528.3,488.8 524.2,481.7 531.3,477.5 	"/>
	<g>
		<path class="st0" d="M525.1,497.2V541c0,5.2-0.3,9-8.6,7.4l-1.5,5.8c15.2,3.5,17.6-4.9,17.7-13.4V502l4.7-1.3v-3.5H525.1z"/>
		<path class="st0" d="M474.3,497.2V541c0,5.2-0.3,9-8.6,7.4l-1.5,5.8c15.2,3.5,17.6-4.9,17.7-13.4V502l4.7-1.3v-3.5H474.3z"/>
	</g>
	<polygon class="st0" points="454.8,484.6 447.9,488.8 443.7,481.7 450.8,477.5 	"/>
	<polygon class="st0" points="442.2,484.6 435.3,488.8 431.2,481.7 438.3,477.5 	"/>
	<g>
		<path class="st0" d="M438.1,530.3c-4.1,0-10-2.3-10-12.7c0-13.8,12.2-14.2,16.7-14.2h4.2v26.9H438.1z M444.8,497.2
			c-7.1,0-24.4,1.3-24.4,20.4c0,17.6,13,19,17.7,19h18.5v-34.5l4.9-1.4v-3.5H444.8z"/>
		<path class="st0" d="M575.2,530.3h-8.7c-7.2,0-12.2-5.8-12.2-12.4c0-4.5,1.1-8,3.4-10.6c2.2-2.6,5.1-3.9,8.8-3.9h8.7V530.3z
			 M582.8,497.2h-16.3c-5.9,0-10.6,1.9-14.3,5.7c-3.7,3.9-5.6,8.8-5.6,14.9c0,13.8,12.1,18.7,19.9,18.7h8.8c0,13-8.5,14.2-22.4,10.1
			l-1.5,5.9c9.9,3,17.6,3,23.1-0.1c5.5-3.1,8.3-7.9,8.3-15.9V497.2z"/>
	</g>
	<polygon class="st0" points="214.8,548.2 218.9,555.2 225.9,551 221.9,543.9 	"/>
	<polygon class="st0" points="202.2,548.2 206.4,555.2 213.3,551 209.3,543.9 	"/>
	<polygon class="st0" points="139.5,483.3 135.6,476.3 128.5,480.5 132.6,487.5 	"/>
	<polygon class="st0" points="127,483.3 123,476.3 115.9,480.5 120,487.5 	"/>
	<polygon class="st0" points="388,475.2 388,536.6 395.6,536.6 395.6,480 400.4,478.7 400.4,475.2 	"/>
	<g>
		<path class="st0" d="M340.2,530.3h-10.9c-4.1,0-10-2.3-10-12.7c0-13.8,5.9-14.2,10.4-14.2c4.6,0,10.4,0.4,10.4,14.2V530.3z
			 M366.5,475.2v55.1h-18.6v-12.7c0-19.1-11.1-20.4-18.2-20.4c-7.1,0-18.1,1.3-18.1,20.4v2.3c0,10.4-5.9,10.4-10,10.4H272v-55.1
			h-7.6v61.4h37.1c3.2,0,10.4,0.4,14.6-5.1c4.2,4.5,10.3,5.1,13.1,5.1H374V480l4.8-1.3v-3.5H366.5z"/>
		<path class="st0" d="M131.2,526.1h-4.9c-4.1,0-14.4-0.6-14.4-11.7c0-13.8,10.6-14.2,15.1-14.2h4.2V526.1z M242.9,475.2v55.1h-13.7
			c-3.9,0-9.7,0-10.1-9.3v-23.8h-7.6v22.7c0,10.4-6.1,10.4-10.1,10.4h-61.7c-0.4,0-0.8-0.3-0.8-0.8V499l4.9-1.4v-3.5h-16.7
			c-7.1,0-22.9,1.3-22.9,20.4c0,17.6,17.4,18,22.1,18h4.9v1c0,1.7,1.4,3.1,3.1,3.1h66.9c3.1,0,9.7,0.3,13.9-4.3
			c4.2,4.7,10.9,4.3,13.9,4.3h21.3V480l4.8-1.3v-3.5H242.9z"/>
		<path class="st0" d="M714.8,613.5c7.5,0,16.6,3.4,21.6,8.4l16.5,16.5c2.5,2.5,5.8,3.8,9.3,3.8c3.5,0,6.8-1.4,9.3-3.8l16.5-16.5
			c5.7-5.7,16.9-9.4,24.9-8.1l23.1,3.7c7.2,1.1,13.9-3.8,15-10.9l3.7-23.1c1.3-8,8.2-17.5,15.4-21.2l20.8-10.6
			c6.5-3.3,9-11.2,5.7-17.7l-10.6-20.8c-3.7-7.2-3.7-19,0-26.2l10.6-20.8c1.6-3.1,1.9-6.7,0.8-10c-1.1-3.3-3.4-6.1-6.5-7.7
			l-20.8-10.6c-7.2-3.7-14.1-13.2-15.4-21.2l-3.7-23.1c-0.5-3.5-2.4-6.5-5.3-8.6c-2.8-2.1-6.3-2.9-9.8-2.4l-23.1,3.7
			c-8,1.3-19.2-2.4-24.9-8.1l-16.5-16.5c-2.5-2.5-5.8-3.8-9.3-3.8c-3.5,0-6.8,1.4-9.3,3.8l-16.5,16.5c-5.7,5.7-16.9,9.4-24.9,8.1
			l-23.1-3.7c-7.2-1.1-13.9,3.8-15,10.9l-3.7,23.1c-1.3,8-8.2,17.5-15.4,21.2l-20.8,10.6c-3.1,1.6-5.4,4.3-6.5,7.7
			c-1.1,3.3-0.8,6.9,0.8,10l10.6,20.8c3.7,7.2,3.7,19,0,26.2l-10.6,20.8c-1.6,3.1-1.9,6.7-0.8,10c1.1,3.3,3.4,6.1,6.5,7.7l20.8,10.6
			c7.2,3.7,14.1,13.2,15.4,21.2l3.7,23.1c1.1,7.2,7.9,12.1,15,10.9l23.1-3.7C712.5,613.6,713.7,613.5,714.8,613.5 M762.2,644.3
			c-4.1,0-7.9-1.6-10.8-4.4l-16.5-16.5c-5.3-5.3-15.7-8.7-23.1-7.5l-23.1,3.7c-8.3,1.3-16.1-4.4-17.4-12.7l-3.7-23.1
			c-1.2-7.4-7.6-16.3-14.3-19.7l-20.8-10.6c-3.6-1.8-6.3-5-7.6-8.9c-1.3-3.9-0.9-8,0.9-11.6l10.6-20.8c3.4-6.7,3.4-17.6,0-24.3
			L625.9,467c-1.8-3.6-2.2-7.7-0.9-11.6c1.3-3.9,3.9-7,7.6-8.9l20.8-10.6c6.7-3.4,13.1-12.2,14.3-19.7l3.7-23.1
			c1.3-8.3,9.1-14,17.4-12.7l23.1,3.7c7.4,1.2,17.8-2.2,23.1-7.5l16.5-16.5c2.9-2.9,6.7-4.4,10.8-4.4c4.1,0,7.9,1.6,10.8,4.4
			l16.5,16.5c5.3,5.3,15.7,8.7,23.1,7.5l23.1-3.7c4-0.6,8,0.3,11.3,2.7c3.3,2.4,5.5,5.9,6.1,9.9l3.7,23.1
			c1.2,7.4,7.6,16.3,14.3,19.7l20.8,10.6c3.6,1.8,6.3,5,7.6,8.9c1.3,3.9,0.9,8-0.9,11.6l-10.6,20.8c-3.4,6.7-3.4,17.6,0,24.3
			l10.6,20.8c3.8,7.5,0.8,16.7-6.7,20.5l-20.8,10.6c-6.7,3.4-13.1,12.2-14.3,19.7l-3.7,23.1c-1.3,8.3-9.1,14-17.4,12.7l-23.1-3.7
			c-7.4-1.2-17.8,2.2-23.1,7.5L773,639.9C770.1,642.7,766.3,644.3,762.2,644.3"/>
		<path class="st1" d="M721.4,608.1c8.7,0,18.9,3.5,24.7,8.8l10.4,9.5c6.5,5.9,16.6,5.5,22.6-1l9.5-10.4c6.5-7.1,19.7-12.1,29.3-11
			l14,1.6c4.2,0.5,8.4-0.7,11.7-3.4c3.3-2.7,5.5-6.5,5.9-10.7l1.6-14c1.1-9.6,8.8-21.3,17.2-26.1l12.3-7c3.7-2.1,6.4-5.5,7.5-9.6
			c1.1-4.1,0.6-8.4-1.5-12.1l-7-12.3c-4.8-8.4-5.4-22.4-1.4-31.3l5.8-12.8c3.6-8,0.1-17.5-7.9-21.2l-12.8-5.8
			c-8.8-4-17.6-15-19.5-24.5l-2.8-13.8c-1.8-8.6-10.2-14.2-18.9-12.5l-13.8,2.8c-9.5,1.9-23-1.8-30.2-8.3l-10.4-9.5
			c-6.5-5.9-16.6-5.5-22.6,1l-9.5,10.4c-6.5,7.1-19.7,12.1-29.3,11l-14-1.6c-4.2-0.5-8.4,0.7-11.7,3.4c-3.3,2.7-5.5,6.5-5.9,10.7
			l-1.6,14c-1.1,9.6-8.8,21.3-17.2,26.1l-12.3,7c-3.7,2.1-6.4,5.5-7.5,9.6c-1.1,4.1-0.6,8.4,1.5,12.1l7,12.3
			c4.8,8.4,5.4,22.4,1.4,31.3l-5.8,12.8c-3.6,8-0.1,17.5,7.9,21.2l12.9,5.8c8.8,4,17.6,15,19.5,24.5l2.8,13.8
			c0.9,4.2,3.3,7.8,6.9,10.1c3.6,2.4,7.8,3.2,12,2.3l13.8-2.8C717.6,608.2,719.5,608.1,721.4,608.1 M767.3,632.7
			c-4.4,0-8.7-1.6-12.2-4.7l-10.4-9.5c-6.7-6.1-19.4-9.6-28.3-7.8l-13.8,2.8c-4.7,1-9.5,0-13.6-2.6c-4-2.7-6.8-6.7-7.8-11.4
			l-2.8-13.8c-1.8-8.9-10-19.2-18.3-23l-12.8-5.8c-4.4-2-7.7-5.6-9.4-10.1c-1.7-4.5-1.5-9.4,0.5-13.8l5.8-12.8
			c3.8-8.3,3.2-21.4-1.3-29.4l-7-12.3c-2.4-4.2-3-9.1-1.7-13.7c1.3-4.7,4.3-8.5,8.5-10.9l12.3-7c7.9-4.5,15.2-15.5,16.2-24.5l1.6-14
			c0.5-4.8,2.9-9.1,6.7-12.1c3.8-3,8.5-4.4,13.3-3.8l14,1.6c9,1,21.4-3.6,27.5-10.3l9.5-10.4c6.7-7.3,18.2-7.9,25.5-1.1l10.4,9.5
			c6.7,6.1,19.4,9.6,28.3,7.8l13.8-2.8c9.8-2,19.3,4.3,21.3,14.1l2.8,13.8c1.8,8.9,10,19.2,18.3,23l12.8,5.8
			c9.1,4.1,13.1,14.9,9,23.9l-5.8,12.8c-3.8,8.3-3.2,21.4,1.3,29.4l7,12.3c2.4,4.2,3,9.1,1.7,13.7c-1.3,4.7-4.3,8.5-8.5,10.9
			l-12.3,7c-7.9,4.5-15.2,15.5-16.2,24.5l-1.6,14c-0.5,4.8-2.9,9.1-6.7,12.1c-3.8,3-8.5,4.4-13.3,3.8l-14-1.6
			c-9-1-21.4,3.6-27.5,10.3l-9.5,10.4C777.1,630.8,772.2,632.7,767.3,632.7"/>
		<path class="st2" d="M728.9,602.8c9.6,0,20.5,3.4,27.2,8.8l3.8,3.2c8,6.6,19.9,5.5,26.5-2.5l3.2-3.8c7.2-8.7,22.1-15.2,33.3-14.5
			l5,0.3c5,0.3,9.8-1.4,13.6-4.7c3.8-3.3,6-7.9,6.3-12.9l0.3-5c0.7-11.2,9-25.3,18.4-31.3l4.2-2.7c8.7-5.6,11.3-17.2,5.8-26
			l-2.7-4.2c-6-9.5-7.6-25.7-3.5-36.2l1.8-4.6c3.8-9.7-1-20.6-10.6-24.4l-4.6-1.8c-10.5-4.1-21.3-16.3-24.1-27.2l-1.2-4.8
			c-2.6-10-12.9-16.1-22.9-13.5l-4.8,1.2c-10.9,2.8-26.8-0.7-35.5-7.9l-3.8-3.2c-3.9-3.2-8.8-4.7-13.8-4.2c-5,0.5-9.5,2.9-12.7,6.7
			l-3.2,3.8c-7.2,8.7-22.1,15.2-33.3,14.5l-5-0.3c-5-0.3-9.8,1.4-13.6,4.7c-3.8,3.3-6,7.9-6.3,12.9l-0.3,5
			c-0.7,11.2-9,25.3-18.4,31.3l-4.2,2.7c-4.2,2.7-7.1,6.9-8.2,11.8c-1.1,4.9-0.2,10,2.5,14.2l2.7,4.2c6,9.5,7.6,25.7,3.5,36.2
			l-1.8,4.6c-1.8,4.7-1.7,9.8,0.3,14.4c2,4.6,5.7,8.2,10.3,10l4.6,1.8c10.5,4.1,21.3,16.3,24.1,27.2l1.2,4.8
			c2.6,10,12.9,16.1,22.9,13.5l4.8-1.2C723.1,603.2,725.9,602.8,728.9,602.8 M771.8,621.2c-4.7,0-9.4-1.6-13.3-4.8l-3.8-3.2
			c-8.2-6.8-23.3-10.1-33.6-7.5l-4.8,1.2c-11.2,2.9-22.6-3.8-25.5-15l-1.2-4.8c-2.7-10.3-12.9-21.9-22.8-25.8l-4.6-1.8
			c-5.2-2-9.3-6-11.5-11.1c-2.2-5.1-2.3-10.8-0.3-16l1.8-4.6c3.9-9.9,2.4-25.3-3.3-34.3l-2.7-4.2c-3-4.7-4-10.3-2.8-15.8
			c1.2-5.5,4.5-10.1,9.2-13.1l4.2-2.7c9-5.7,16.8-19,17.5-29.7l0.3-5c0.3-5.6,2.8-10.7,7-14.4c4.2-3.7,9.6-5.6,15.1-5.2l5,0.3
			c10.7,0.7,24.8-5.5,31.6-13.7l3.2-3.8c3.5-4.3,8.6-7,14.1-7.5c5.6-0.5,11,1.1,15.3,4.7l3.8,3.2c8.2,6.8,23.3,10.1,33.6,7.5
			l4.8-1.2c11.2-2.9,22.6,3.8,25.5,15l1.2,4.8c2.7,10.3,12.9,21.9,22.8,25.8l4.6,1.8c10.7,4.2,16,16.4,11.8,27.1l-1.8,4.6
			c-3.9,9.9-2.4,25.3,3.3,34.3l2.7,4.2c6.2,9.7,3.3,22.7-6.4,28.9l-4.2,2.7c-9,5.7-16.8,19-17.5,29.7l-0.3,5
			c-0.3,5.6-2.8,10.7-7,14.4c-4.2,3.7-9.6,5.6-15.1,5.2l-5-0.3c-10.6-0.7-24.8,5.5-31.6,13.7l-3.2,3.8
			C783.9,618.6,777.9,621.2,771.8,621.2"/>
		<path class="st3" d="M738.5,597.3c9.3,0,19.5,2.8,26.1,7.6c4.2,3.1,9.4,4.3,14.6,3.5c5.2-0.8,9.8-3.6,12.8-7.8
			c6.9-9.4,22-17.1,33.7-17.1h0.1c10.8,0,19.6-8.8,19.6-19.6c0-11.7,7.7-26.8,17.2-33.7c8.8-6.4,10.7-18.7,4.4-27.4
			c-6.9-9.5-9.5-26.2-5.9-37.4c3.4-10.3-2.3-21.4-12.6-24.8c-11.1-3.6-23.1-15.6-26.7-26.8c-3.3-10.3-14.4-16-24.7-12.6
			c-11.1,3.6-27.9,0.9-37.3-6c-4.2-3.1-9.4-4.3-14.6-3.5c-5.2,0.8-9.8,3.6-12.8,7.8c-6.9,9.4-22,17.1-33.7,17.1h-0.1
			c-10.8,0-19.6,8.8-19.6,19.6c0,11.7-7.7,26.8-17.2,33.7c-4.2,3.1-7,7.6-7.8,12.8c-0.8,5.2,0.4,10.4,3.5,14.6
			c6.9,9.5,9.5,26.2,5.9,37.4c-1.6,5-1.2,10.3,1.2,15c2.4,4.7,6.4,8.2,11.4,9.8c11.1,3.6,23.1,15.6,26.7,26.8
			c3.3,10.3,14.4,16,24.7,12.6C730.6,597.8,734.5,597.3,738.5,597.3 M776.1,610.7c-4.6,0-9-1.4-12.7-4.1c-9-6.5-24.9-9.1-35.5-5.7
			c-11.4,3.7-23.7-2.6-27.4-14c-3.4-10.6-14.8-22-25.4-25.4c-5.5-1.8-10-5.6-12.6-10.8c-2.6-5.2-3.1-11.1-1.3-16.6
			c3.4-10.6,1-26.5-5.6-35.5c-3.4-4.7-4.8-10.4-3.8-16.2c0.9-5.8,4-10.8,8.7-14.2c9-6.5,16.3-20.9,16.3-32c0-12,9.8-21.7,21.7-21.7
			h0.1c11.1,0,25.4-7.3,32-16.3c3.4-4.7,8.4-7.7,14.2-8.6c5.8-0.9,11.5,0.5,16.2,3.9c9,6.5,24.9,9.1,35.5,5.7
			c11.4-3.7,23.7,2.6,27.4,14c3.4,10.6,14.8,22,25.4,25.4c11.4,3.7,17.6,16,13.9,27.4c-3.4,10.6-0.9,26.5,5.6,35.5
			c7,9.7,4.9,23.3-4.9,30.4c-9,6.5-16.3,20.9-16.3,32c0,12-9.8,21.7-21.7,21.7h-0.1c-11.1,0-25.5,7.3-32,16.3
			c-3.4,4.7-8.4,7.7-14.2,8.6C778.4,610.6,777.2,610.7,776.1,610.7"/>
		<path class="st4" d="M749.8,591c7.7,0,15.8,1.9,21.4,5.4c4.1,2.6,8.9,3.4,13.6,2.3c4.7-1.1,8.7-3.9,11.3-8
			c5.7-9.2,19.2-17.3,30-18c4.8-0.3,9.2-2.5,12.4-6.2c3.2-3.7,4.7-8.3,4.4-13.1c-0.7-10.8,5.4-25.3,13.7-32.2
			c7.6-6.4,8.6-17.8,2.3-25.5c-7-8.3-10.5-23.6-7.8-34.1c2.4-9.7-3.5-19.5-13.1-21.9c-10.5-2.6-22.3-12.9-26.4-23
			c-1.8-4.5-5.2-8-9.7-9.9c-4.4-1.9-9.4-2-13.8-0.2c-10,4-25.7,2.7-34.9-3.1c-8.4-5.3-19.6-2.7-24.9,5.7c-5.8,9.2-19.2,17.3-30,18
			c-9.9,0.7-17.5,9.3-16.8,19.3c0.7,10.8-5.4,25.3-13.7,32.2c-7.6,6.4-8.6,17.8-2.3,25.5c7,8.3,10.5,23.6,7.8,34.1
			c-1.2,4.7-0.4,9.5,2,13.7c2.5,4.1,6.4,7.1,11.1,8.2c10.5,2.6,22.3,12.9,26.4,23c1.8,4.5,5.2,8,9.7,9.9c4.4,1.9,9.4,2,13.8,0.2
			C740.3,591.7,745,591,749.8,591 M780.8,601.2c-3.7,0-7.4-1-10.6-3.1c-8.7-5.4-23.5-6.7-33-2.9c-5,2-10.5,1.9-15.4-0.2
			c-5-2.1-8.8-6-10.8-11c-3.8-9.5-15-19.3-25-21.7c-5.2-1.3-9.6-4.6-12.4-9.2c-2.8-4.6-3.6-10.1-2.3-15.3c2.5-9.9-0.8-24.4-7.4-32.3
			c-7.1-8.5-6-21.3,2.5-28.4c7.9-6.6,13.7-20.2,13-30.5c-0.8-11.1,7.6-20.7,18.7-21.5c10.2-0.7,23-8.3,28.4-17
			c5.9-9.4,18.4-12.3,27.8-6.4c8.7,5.4,23.5,6.7,33,2.9c5-2,10.4-1.9,15.4,0.2c5,2.1,8.8,6,10.8,11c3.8,9.5,15,19.3,25,21.7
			c10.8,2.7,17.4,13.7,14.7,24.5c-2.5,9.9,0.8,24.4,7.4,32.3c7.1,8.5,6,21.3-2.5,28.4c-7.9,6.6-13.7,20.2-13,30.5
			c0.4,5.4-1.4,10.5-4.9,14.6c-3.5,4.1-8.4,6.5-13.8,6.9c-10.2,0.7-23,8.3-28.4,17c-2.8,4.5-7.3,7.7-12.6,8.9
			C783.8,601.1,782.3,601.2,780.8,601.2"/>
		<path class="st5" d="M761.4,584.4c6,0,11.9,1.2,16.5,3.5c8.1,4.2,18.2,1,22.4-7.1c4.6-8.9,16.4-17.4,26.3-18.9
			c9-1.4,15.3-9.9,13.9-18.9c-1.5-9.9,3.1-23.7,10.2-30.8c6.5-6.4,6.6-17,0.1-23.5c-7-7.1-11.5-21-9.8-30.9
			c0.7-4.4-0.3-8.7-2.9-12.4c-2.6-3.6-6.4-6-10.8-6.7c-9.9-1.6-21.6-10.2-26.1-19.2c-2-3.9-5.4-6.9-9.6-8.3
			c-4.2-1.4-8.7-1.1-12.7,0.9c-9,4.5-23.5,4.4-32.4-0.2c-3.9-2-8.4-2.4-12.7-1.1c-4.2,1.3-7.7,4.2-9.7,8.2
			c-4.6,8.9-16.4,17.4-26.3,18.9c-9,1.4-15.3,9.9-13.9,18.9c1.5,9.9-3.1,23.7-10.2,30.7c-6.5,6.4-6.6,17-0.1,23.5
			c7,7.1,11.4,21,9.8,30.9c-0.7,4.4,0.3,8.7,2.9,12.4c2.6,3.6,6.4,6,10.8,6.7c9.9,1.6,21.6,10.2,26.1,19.2c2,3.9,5.4,6.9,9.6,8.3
			c4.2,1.4,8.7,1.1,12.7-0.9C749.9,585.5,755.6,584.4,761.4,584.4 M785.5,591.9c-2.9,0-5.8-0.7-8.6-2.1c-8.4-4.3-22.1-4.4-30.5-0.2
			c-4.4,2.2-9.5,2.6-14.3,1c-4.8-1.6-8.6-4.9-10.8-9.3c-4.2-8.4-15.2-16.5-24.6-18.1c-4.9-0.8-9.2-3.5-12.1-7.6
			c-2.9-4.1-4.1-9-3.3-13.9c1.5-9.3-2.6-22.3-9.2-29.1c-7.2-7.3-7.2-19.2,0.2-26.4c6.7-6.6,11-19.6,9.6-28.9
			c-1.6-10.2,5.5-19.7,15.7-21.3c9.3-1.4,20.4-9.4,24.8-17.8c2.3-4.4,6.2-7.7,10.9-9.2c4.8-1.5,9.8-1.1,14.3,1.2
			c8.4,4.3,22.1,4.4,30.5,0.2c4.4-2.2,9.5-2.6,14.3-1c4.8,1.6,8.6,4.9,10.8,9.3c4.2,8.4,15.2,16.5,24.6,18.1
			c4.9,0.8,9.2,3.5,12.1,7.6c2.9,4.1,4.1,9,3.3,13.9c-1.5,9.3,2.6,22.3,9.2,29.1c7.2,7.3,7.2,19.2-0.2,26.4
			c-6.7,6.6-11,19.6-9.6,28.9c1.6,10.2-5.5,19.7-15.7,21.3c-9.3,1.4-20.4,9.4-24.8,17.8C798.8,588.2,792.2,591.9,785.5,591.9"/>
		<path class="st6" d="M734.3,419.4c-6.1,0-11.8,3.6-14.2,9.6c-3.5,8.6-13.6,17.5-22.6,19.8c-8.2,2.1-13.1,10.4-11.1,18.5
			c2.3,9-0.7,22.2-6.7,29.3c-2.6,3.1-3.8,7.1-3.5,11.2c0.4,4.1,2.3,7.8,5.4,10.4c7.1,6,12.4,18.3,11.8,27.6
			c-0.6,8.4,5.8,15.7,14.2,16.3c9.3,0.6,20.8,7.5,25.8,15.4c2.2,3.4,5.6,5.8,9.5,6.7c4,0.9,8.1,0.2,11.5-1.9
			c7.9-4.9,21.3-6.2,29.9-2.7c3.8,1.5,7.9,1.5,11.7-0.2c3.8-1.6,6.7-4.6,8.2-8.3c3.5-8.6,13.6-17.5,22.6-19.8
			c8.2-2.1,13.1-10.4,11.1-18.5c-2.3-9,0.7-22.1,6.7-29.3c2.6-3.1,3.8-7.1,3.5-11.2c-0.4-4.1-2.3-7.8-5.4-10.4
			c-7.1-6-12.4-18.3-11.8-27.6c0.6-8.4-5.8-15.7-14.2-16.3c-9.3-0.6-20.8-7.5-25.8-15.4c-4.5-7.1-13.9-9.3-21.1-4.8
			c-7.9,4.9-21.3,6.2-29.9,2.7C738.1,419.8,736.2,419.4,734.3,419.4 M746.5,586.6c-1.3,0-2.6-0.1-3.9-0.4c-4.5-1-8.4-3.8-10.8-7.7
			c-4.6-7.4-15.5-13.8-24.2-14.4c-9.6-0.6-16.8-8.9-16.2-18.5c0.6-8.7-4.4-20.3-11.1-25.9c-3.5-3-5.7-7.1-6.1-11.8
			c-0.4-4.6,1-9.1,3.9-12.7c5.6-6.7,8.4-19,6.3-27.4c-2.3-9.3,3.3-18.7,12.6-21.1c8.4-2.1,17.9-10.4,21.2-18.5
			c3.6-8.9,13.7-13.2,22.6-9.7c8.1,3.2,20.7,2.1,28-2.5c3.9-2.5,8.6-3.2,13.1-2.2c4.5,1,8.4,3.8,10.8,7.7
			c4.6,7.4,15.5,13.8,24.2,14.4c9.6,0.6,16.8,8.9,16.2,18.5c-0.6,8.7,4.4,20.3,11.1,25.9c3.6,3,5.7,7.1,6.2,11.8
			c0.4,4.6-1,9.1-3.9,12.7c-5.6,6.7-8.4,19-6.3,27.4c2.3,9.3-3.3,18.7-12.6,21.1c-8.4,2.1-17.9,10.4-21.2,18.5
			c-1.7,4.3-5,7.7-9.3,9.5c-4.3,1.8-9,1.9-13.3,0.2c-8.1-3.2-20.7-2.1-28,2.5C752.9,585.7,749.7,586.6,746.5,586.6"/>
		<path class="st7" d="M719.2,562.8c8.5,0,19.4,5.1,24.6,11.6c2.3,2.9,5.7,4.8,9.5,5.2c3.8,0.4,7.5-0.6,10.4-3
			c6.8-5.4,19.1-7.9,27.4-5.6c3.6,1,7.4,0.5,10.7-1.3c3.3-1.9,5.7-4.9,6.7-8.5c2.3-8.3,10.8-17.6,18.9-20.7
			c7.3-2.7,11-10.9,8.3-18.2c-3-8.1-1.6-20.6,3.1-27.8c4.3-6.5,2.5-15.3-4-19.6c-7.2-4.8-13.4-15.7-13.8-24.3
			c-0.3-7.8-7-13.8-14.7-13.5c-8.6,0.4-20.1-4.8-25.5-11.6c-2.3-2.9-5.7-4.8-9.5-5.2c-3.8-0.4-7.5,0.6-10.4,3
			c-6.8,5.4-19.1,7.9-27.4,5.6c-3.6-1-7.4-0.5-10.7,1.3c-3.3,1.9-5.7,4.9-6.7,8.5c-2.3,8.3-10.8,17.6-18.9,20.7
			c-3.5,1.3-6.3,3.9-7.9,7.4c-1.6,3.4-1.7,7.3-0.4,10.8c3,8.1,1.6,20.6-3.1,27.8c-2.1,3.1-2.8,6.9-2,10.6c0.8,3.7,2.9,6.9,6,9
			c7.2,4.8,13.4,15.7,13.8,24.3c0.4,7.8,7,13.8,14.7,13.5C718.6,562.8,718.9,562.8,719.2,562.8 M754.9,581.8c-0.6,0-1.2,0-1.9-0.1
			c-4.3-0.5-8.2-2.6-10.9-6c-5-6.3-15.7-11.1-23.8-10.8c-9,0.4-16.5-6.5-16.9-15.5c-0.4-8.1-6.1-18.2-12.9-22.7
			c-3.6-2.4-6.1-6-6.9-10.3c-0.9-4.3,0-8.6,2.3-12.2c4.4-6.7,5.8-18.4,2.9-25.9c-1.5-4-1.4-8.4,0.4-12.4c1.8-4,5-7,9.1-8.5
			c7.6-2.8,15.5-11.5,17.6-19.3c1.1-4.2,3.9-7.6,7.6-9.8c3.8-2.1,8.2-2.7,12.3-1.5c7.8,2.1,19.2-0.2,25.6-5.2
			c3.4-2.7,7.6-3.9,11.9-3.4c4.3,0.5,8.2,2.6,10.9,6c5,6.3,15.8,11.1,23.8,10.8c9-0.4,16.5,6.5,16.9,15.5
			c0.4,8.1,6.1,18.2,12.9,22.7c7.5,4.9,9.5,15,4.6,22.5c-4.4,6.7-5.8,18.4-2.9,25.9c3.1,8.4-1.1,17.7-9.5,20.9
			c-7.6,2.8-15.5,11.5-17.6,19.3c-1.1,4.2-3.9,7.6-7.6,9.8c-3.8,2.1-8.2,2.7-12.3,1.5c-7.8-2.2-19.3,0.2-25.6,5.2
			C762,580.6,758.5,581.8,754.9,581.8"/>
		<path class="st8" d="M732.8,563.1c7.5,0,16.3,3.2,21.3,8c5.2,5,13.5,4.9,18.6-0.3c5.6-5.8,16.8-9.6,24.8-8.5
			c3.4,0.5,6.9-0.4,9.7-2.5c2.8-2.1,4.6-5.2,5.1-8.6c1.1-8,7.9-17.7,15.1-21.4c3.1-1.6,5.4-4.4,6.4-7.8c1-3.4,0.7-6.9-0.9-10
			c-3.8-7.2-4-18.9-0.4-26.2c3.2-6.5,0.5-14.4-6-17.6c-7.3-3.6-14.3-13-15.7-21c-0.6-3.4-2.5-6.4-5.4-8.5c-2.9-2-6.4-2.8-9.8-2.2
			c-8,1.4-19.2-2.1-25.1-7.7c-5.2-5-13.5-4.9-18.6,0.3c-5.6,5.8-16.8,9.6-24.8,8.5c-3.4-0.5-6.9,0.4-9.7,2.5
			c-2.8,2.1-4.6,5.2-5.1,8.6c-1.1,8-7.9,17.7-15.1,21.5c-3.1,1.6-5.4,4.4-6.4,7.7c-1,3.4-0.7,6.9,0.9,10c3.8,7.2,4,18.9,0.4,26.2
			c-3.2,6.5-0.5,14.4,6,17.6c7.3,3.6,14.3,13,15.7,21c0.6,3.4,2.5,6.4,5.4,8.5c2.9,2,6.4,2.8,9.8,2.2
			C730.2,563.2,731.5,563.1,732.8,563.1 M763.2,576.9c-3.8,0-7.6-1.4-10.6-4.3c-5.4-5.2-15.8-8.4-23.2-7.1c-4,0.7-8-0.2-11.4-2.6
			c-3.3-2.3-5.6-5.8-6.3-9.8c-1.3-7.4-7.8-16.1-14.6-19.4c-7.5-3.7-10.7-12.8-7-20.4c3.3-6.8,3.1-17.7-0.4-24.3
			c-1.9-3.6-2.3-7.7-1.1-11.6c1.2-3.9,3.8-7.1,7.4-9c6.6-3.5,12.9-12.4,14-19.9c0.6-4,2.7-7.6,5.9-10c3.3-2.5,7.3-3.5,11.3-2.9
			c7.4,1.1,17.8-2.5,23-7.9c5.8-6,15.5-6.2,21.5-0.3c5.4,5.2,15.8,8.4,23.2,7.1c4-0.7,8,0.2,11.4,2.6c3.3,2.3,5.6,5.8,6.3,9.8
			c1.3,7.4,7.8,16.1,14.6,19.4c7.5,3.7,10.7,12.8,7,20.4c-3.3,6.8-3.1,17.7,0.4,24.3c1.9,3.6,2.3,7.7,1.1,11.6
			c-1.2,3.9-3.8,7.1-7.4,9c-6.6,3.5-12.9,12.4-14,19.9c-0.6,4-2.7,7.6-5.9,10c-3.3,2.4-7.3,3.5-11.3,2.9c-7.4-1.1-17.8,2.5-23,7.9
			C771.1,575.4,767.2,576.9,763.2,576.9"/>
		<path class="st9" d="M747.5,561.6c6,0,12.5,1.8,16.7,4.8c5.4,3.9,13,2.7,16.9-2.7c4.4-6.1,14.2-11.1,21.7-11.1
			c3.2,0,6.3-1.3,8.6-3.6c2.3-2.3,3.6-5.3,3.5-8.6c0-7.6,4.9-17.3,11-21.8c5.4-3.9,6.6-11.5,2.6-16.9c-4.5-6.1-6.2-16.9-3.9-24.1
			c1-3.1,0.7-6.4-0.8-9.2c-1.5-2.9-4-5-7.1-6c-7.2-2.3-15-10-17.3-17.2c-1-3.1-3.2-5.6-6-7c-2.9-1.5-6.2-1.7-9.3-0.7
			c-7.2,2.4-18,0.7-24.1-3.8c-2.6-1.9-5.8-2.6-9-2.1c-3.2,0.5-6,2.2-7.9,4.9c-4.4,6.1-14.2,11.1-21.7,11.1
			c-6.7,0-12.1,5.5-12.1,12.2c0,7.6-4.9,17.3-11,21.8c-2.6,1.9-4.3,4.7-4.8,7.9c-0.5,3.2,0.3,6.4,2.2,9c4.5,6.1,6.2,16.9,3.9,24.1
			c-1,3.1-0.7,6.4,0.8,9.2c1.5,2.9,4,5,7.1,6c7.2,2.3,15,10,17.3,17.2c2.1,6.4,8.9,9.8,15.3,7.8
			C742.3,561.9,744.8,561.6,747.5,561.6 M771.3,570.8c-2.9,0-5.8-0.9-8.3-2.7c-5.6-4-15.7-5.6-22.2-3.5c-7.4,2.4-15.5-1.6-17.9-9.1
			c-2.1-6.5-9.4-13.8-16-15.9c-3.6-1.2-6.5-3.7-8.3-7.1c-1.7-3.4-2.1-7.2-0.9-10.8c2.1-6.5,0.5-16.7-3.6-22.2
			c-2.2-3.1-3.1-6.8-2.6-10.6c0.6-3.8,2.6-7.1,5.7-9.3c5.5-4,10.2-13.2,10.2-20.1c0-7.8,6.3-14.2,14.2-14.3c6.9,0,16-4.7,20-10.3
			c2.2-3.1,5.5-5.1,9.3-5.7c3.8-0.6,7.5,0.3,10.6,2.5c5.6,4,15.7,5.6,22.3,3.5c3.6-1.2,7.4-0.9,10.8,0.8c3.4,1.7,5.9,4.7,7.1,8.2
			c2.1,6.5,9.4,13.8,16,15.9c3.6,1.2,6.5,3.7,8.3,7.1c1.7,3.4,2.1,7.2,0.9,10.8c-2.1,6.5-0.5,16.7,3.6,22.2
			c2.2,3.1,3.1,6.8,2.6,10.6c-0.6,3.8-2.6,7.1-5.6,9.3c-5.5,4-10.2,13.2-10.2,20.1c0,3.8-1.5,7.4-4.2,10.1c-2.7,2.7-6.2,4.2-10,4.2
			c-6.9,0-16,4.7-20,10.3C780.1,568.8,775.7,570.8,771.3,570.8"/>
		<path class="st10" d="M762.2,558c4.1,0,8.2,0.8,11.3,2.4c2.6,1.3,5.7,1.6,8.5,0.7c2.8-0.9,5.1-2.9,6.5-5.5
			c3.2-6.3,11.4-12.2,18.4-13.3c6.1-1,10.2-6.7,9.3-12.8c-1.1-6.9,2-16.6,7-21.6c2.1-2.1,3.3-4.9,3.3-7.9c0-3-1.2-5.8-3.3-7.9
			c-5-5-8.1-14.6-7-21.6c1-6.1-3.2-11.8-9.3-12.8c-6.9-1.1-15.2-7.1-18.4-13.3c-1.3-2.6-3.7-4.6-6.5-5.5c-2.8-0.9-5.9-0.7-8.5,0.7
			c-6.3,3.2-16.4,3.2-22.7,0c-2.6-1.3-5.7-1.6-8.5-0.7c-2.8,0.9-5.2,2.9-6.5,5.5c-3.2,6.3-11.4,12.2-18.4,13.3
			c-2.9,0.5-5.5,2-7.3,4.5c-1.8,2.4-2.5,5.4-2,8.3c1.1,6.9-2,16.6-7,21.6c-2.1,2.1-3.3,4.9-3.3,7.9c0,3,1.2,5.8,3.3,7.9
			c5,5,8.1,14.6,7,21.6c-0.5,2.9,0.3,5.9,2,8.3c1.8,2.4,4.3,4,7.3,4.5c6.9,1.1,15.2,7.1,18.4,13.3c1.3,2.6,3.7,4.6,6.5,5.5
			c2.8,0.9,5.9,0.7,8.5-0.7C754,558.8,758.1,558,762.2,558 M778.6,563.7c-2.1,0-4.1-0.5-6-1.4c-5.6-2.9-15.2-2.9-20.8,0
			c-3.1,1.6-6.7,1.9-10.1,0.8c-3.4-1.1-6.1-3.4-7.7-6.6c-2.9-5.6-10.6-11.2-16.8-12.2c-3.5-0.6-6.5-2.4-8.6-5.3
			c-2.1-2.9-2.9-6.4-2.4-9.9c1-6.2-2-15.3-6.4-19.8c-2.5-2.5-3.9-5.8-3.9-9.4c0-3.5,1.4-6.9,3.9-9.4c4.5-4.5,7.4-13.5,6.4-19.8
			c-0.6-3.5,0.3-7,2.4-9.9c2.1-2.9,5.2-4.8,8.6-5.3c6.2-1,13.9-6.6,16.8-12.2c1.6-3.1,4.3-5.5,7.7-6.6c3.4-1.1,7-0.8,10.1,0.8
			c5.6,2.9,15.2,2.9,20.8,0c3.1-1.6,6.7-1.9,10.1-0.8c3.4,1.1,6.1,3.4,7.7,6.6c2.9,5.6,10.6,11.2,16.8,12.2
			c7.2,1.1,12.2,7.9,11,15.2c-1,6.2,2,15.3,6.4,19.8c2.5,2.5,3.9,5.8,3.9,9.4c0,3.5-1.4,6.9-3.9,9.4c-4.5,4.5-7.4,13.5-6.4,19.8
			c1.1,7.2-3.8,14-11,15.2c-6.2,1-13.9,6.6-16.8,12.2c-1.6,3.1-4.3,5.5-7.7,6.6C781.3,563.5,780,563.7,778.6,563.7"/>
		<path class="st0" d="M804.3,511.9l-1.8-0.6c-2.8-0.9-6-1.3-9.6-1.3c-9,0.1-19.2,3-27.5,7.8c-2.4-14.2-1.3-30.6-0.9-34.9
			c3.4,1.9,7.6,5.6,10.3,15.6l0.4,1.3l0.2-1.3c2-11.2-5.6-18.4-5.9-18.7c0.3,0,2.3,0,5.2,1.4c2.7,1.2,6.7,3.9,10.6,9.6l0.8,1.2
			l-0.3-1.5c-2.9-14.3-14.6-17.2-15.3-17.4c0.2-0.1,3.9-2.8,15,0.8l1,0.3l-0.7-0.8c-6.8-8-17.1-5.8-18.3-5.6l0,0
			c0.4-0.9,2.1-3.1,5.5-5.5l1-0.7l-1.3,0.2c-5.6,0.8-8.7,3.4-9.4,4.4c-0.1-1.2-0.3-3.5-1.1-5.2l-0.3-0.6l-0.3,0.6
			c-0.7,1.7-1,4-1.1,5.2c-0.7-0.9-3.8-3.6-9.4-4.4l-1.3-0.2l1,0.7c3.4,2.3,5,4.5,5.5,5.5c-1-0.2-11.5-2.4-18.3,5.6l-0.7,0.8l1-0.3
			c11.1-3.7,14.9-1,15-0.8c-0.7,0.2-12.4,3.1-15.3,17.4l-0.3,1.5l0.8-1.2c3.9-5.7,7.9-8.4,10.6-9.6c2.8-1.3,4.8-1.4,5.2-1.4h0
			c-0.3,0.3-7.9,7.5-5.9,18.7l0.2,1.3l0.4-1.3c2.7-10,6.9-13.6,10.3-15.6c0.3,4.2,1.4,20.7-0.9,34.9c-8.3-4.8-18.5-7.7-27.5-7.8
			c-0.1,0-0.3,0-0.4,0c-3.5,0-6.6,0.4-9.2,1.3l-1.8,0.6h1.9c15.7,0,25.2,3.9,36.1,10.6c-0.2,0.2-0.5,0.4-0.8,0.6
			c-4.5,3.2-15,10.8-20.2,10.8c-0.9,0-1.7-0.1-2.5-0.3l-1-0.3l0.8,0.9c0.6,0.7,2.1,2.5,4.8,2.5c6.4,0,15.2-6.1,20.5-9.8
			c1-0.7,1.9-1.3,2.5-1.7c0.7,0.4,1.6,1,2.6,1.7c5.3,3.7,14.1,9.8,20.5,9.8c2.7,0,4.1-1.7,4.8-2.5l0.8-0.9l-1,0.3
			c-0.7,0.2-1.6,0.3-2.5,0.3c-5.2,0-15.7-7.6-20.2-10.8c-0.3-0.2-0.6-0.4-0.8-0.6c10.9-6.7,20.4-10.6,36.1-10.6H804.3z"/>
	</g>
</g>
</svg>
