<svg width="105" height="106" viewBox="0 0 105 106" fill="none" xmlns="http://www.w3.org/2000/svg">
<rect width="105" height="106.01" rx="20" fill="#004136" fill-opacity="0.1"/>
<path fill-rule="evenodd" clip-rule="evenodd" d="M34.5 50.6724C34.5 42.2929 41.2206 35.5 49.5109 35.5C53.492 35.5 57.3101 37.0985 60.1252 39.9439C62.9402 42.7893 64.5217 46.6484 64.5217 50.6724C64.5217 59.0518 57.8011 65.8447 49.5109 65.8447C41.2206 65.8447 34.5 59.0518 34.5 50.6724ZM64.2734 62.895L68.744 66.5037H68.8216C69.7261 67.4179 69.7261 68.9001 68.8216 69.8144C67.9172 70.7285 66.4507 70.7285 65.5463 69.8144L61.8362 65.5623C61.4855 65.209 61.2884 64.7291 61.2884 64.2287C61.2884 63.7282 61.4855 63.2483 61.8362 62.895C62.5127 62.2232 63.597 62.2232 64.2734 62.895Z" fill="#004136"/>
</svg>
