<svg width="105" height="106" viewBox="0 0 105 106" fill="none" xmlns="http://www.w3.org/2000/svg">
<rect width="105" height="106.01" rx="20" fill="#004136" fill-opacity="0.1"/>
<path d="M50.5245 43.9735V36.2895C50.5245 35.4725 51.1762 34.7916 52.0004 34.7916C52.7383 34.7916 53.3635 35.3637 53.4625 36.0884L53.4762 36.2895V43.9735L62.6377 43.974C67.1993 43.974 70.9471 47.7095 71.1575 52.3682L71.1668 52.7816V62.4403C71.1668 67.1316 67.5494 70.9825 63.0556 71.1987L62.6568 71.2083H41.3435C36.7818 71.2083 33.0522 67.4915 32.8428 62.8157L32.8335 62.4007L32.8335 52.7618C32.8335 48.0705 36.4328 44.201 40.9257 43.9837L41.3243 43.974H50.5243V56.2453L47.4577 53.0785C46.8827 52.4847 45.9435 52.4847 45.3685 53.0785C45.081 53.3754 44.9468 53.7712 44.9468 54.1671C44.9468 54.4679 45.0327 54.7814 45.2142 55.0468L45.3685 55.2359L50.946 61.0152C51.2143 61.3121 51.5977 61.4705 52.0002 61.4705C52.3196 61.4705 52.6391 61.3605 52.8919 61.152L53.0352 61.0152L58.6127 55.2359C59.1877 54.6421 59.1877 53.6723 58.6127 53.0785C58.0899 52.5387 57.2662 52.4897 56.6888 52.9313L56.5235 53.0785L53.476 56.2453V43.974L50.5245 43.9735Z" fill="#004136"/>
</svg>
