<svg width="105" height="106" viewBox="0 0 105 106" fill="none" xmlns="http://www.w3.org/2000/svg">
<rect width="105" height="106.01" rx="20" fill="#004136" fill-opacity="0.1"/>
<path d="M59.5128 49.4925L64.0206 54.0003C64.7521 54.722 65.3336 55.5814 65.7316 56.5287C66.1296 57.4761 66.3363 58.4929 66.3398 59.5205C66.3432 60.5481 66.1433 61.5663 65.7517 62.5163C65.36 63.4664 64.7843 64.3295 64.0577 65.0562C63.3311 65.7828 62.4679 66.3585 61.5178 66.7502C60.5678 67.1418 59.5496 67.3417 58.522 67.3383C57.4944 67.3348 56.4777 67.1281 55.5303 66.7301C54.5829 66.3321 53.7236 65.7506 53.0018 65.0191L51.5001 63.5175C51.2971 63.3215 51.1351 63.0871 51.0236 62.8279C50.9121 62.5687 50.8534 62.2899 50.8508 62.0077C50.8482 61.7256 50.9018 61.4458 51.0086 61.1845C51.1153 60.9233 51.273 60.686 51.4724 60.4864C51.6718 60.2868 51.909 60.1289 52.1701 60.0219C52.4312 59.9149 52.711 59.861 52.9932 59.8634C53.2753 59.8657 53.5542 59.9242 53.8135 60.0354C54.0728 60.1467 54.3074 60.3084 54.5035 60.5113L56.008 62.0144C56.6733 62.6737 57.5726 63.0426 58.5092 63.0404C59.4458 63.0382 60.3435 62.6651 61.0057 62.0027C61.6679 61.3403 62.0407 60.4426 62.0426 59.506C62.0445 58.5694 61.6754 57.6701 61.0159 57.005L56.5081 52.4972C56.0208 52.0098 55.402 51.6751 54.7273 51.5342C54.0527 51.3932 53.3516 51.4522 52.71 51.7039C52.4814 51.7945 52.267 51.8871 52.0668 51.9815L51.4095 52.289C50.5311 52.6856 49.8554 52.8556 48.9955 51.9971C47.7601 50.7618 48.0803 49.6214 49.5862 48.583C51.0863 47.5507 52.9006 47.0765 54.714 47.2426C56.5273 47.4088 58.2252 48.2048 59.5128 49.4925ZM50.9986 40.9783L52.5003 42.48C52.8876 42.8806 53.102 43.4172 53.0975 43.9744C53.0929 44.5316 52.8696 45.0647 52.4758 45.4588C52.082 45.853 51.5492 46.0768 50.992 46.0819C50.4348 46.087 49.8979 45.873 49.497 45.4861L47.9939 43.9845C47.6673 43.6461 47.2766 43.3762 46.8445 43.1904C46.4125 43.0047 45.9478 42.9069 45.4775 42.9027C45.0072 42.8984 44.5408 42.9879 44.1055 43.1659C43.6702 43.3438 43.2747 43.6067 42.9421 43.9391C42.6095 44.2716 42.3464 44.6669 42.1682 45.1021C41.99 45.5374 41.9002 46.0037 41.9042 46.474C41.9081 46.9442 42.0057 47.409 42.1912 47.8411C42.3767 48.2733 42.6464 48.6642 42.9846 48.991L47.4924 53.4988C47.9796 53.9862 48.5985 54.3209 49.2731 54.4619C49.9478 54.6028 50.6489 54.5438 51.2905 54.2921C51.519 54.2015 51.7334 54.1089 51.9336 54.0145L52.591 53.707C53.4693 53.3104 54.1465 53.1404 55.005 53.9989C56.2403 55.2342 55.9201 56.3746 54.4142 57.413C52.9141 58.4453 51.0998 58.9195 49.2865 58.7534C47.4731 58.5872 45.7752 57.7912 44.4876 56.5035L39.9798 51.9957C39.2483 51.274 38.6668 50.4147 38.2688 49.4673C37.8708 48.5199 37.6641 47.5031 37.6607 46.4755C37.6572 45.4479 37.8571 44.4297 38.2488 43.4797C38.6404 42.5297 39.2161 41.6665 39.9428 40.9398C40.6694 40.2132 41.5326 39.6375 42.4826 39.2458C43.4327 38.8542 44.4508 38.6543 45.4784 38.6578C46.506 38.6612 47.5228 38.8679 48.4702 39.2659C49.4176 39.6639 50.2769 40.2468 50.9986 40.9783Z" fill="#004136"/>
</svg>
