<svg width="105" height="106" viewBox="0 0 105 106" fill="none" xmlns="http://www.w3.org/2000/svg">
<rect width="105" height="106.01" rx="20" fill="#004136" fill-opacity="0.1"/>
<path d="M65.3332 43C65.3332 39.3867 59.2282 36.3334 51.9998 36.3334C44.7715 36.3334 38.6665 39.3867 38.6665 43V46.3334C38.6665 49.9467 44.7715 53 51.9998 53C59.2282 53 65.3332 49.9467 65.3332 46.3334V43ZM51.9998 64.6667C44.7715 64.6667 38.6665 61.6134 38.6665 58V63C38.6665 66.6134 44.7715 69.6667 51.9998 69.6667C59.2282 69.6667 65.3332 66.6134 65.3332 63V58C65.3332 61.6134 59.2282 64.6667 51.9998 64.6667Z" fill="#004136"/>
<path d="M65.3332 49.6666C65.3332 53.28 59.2282 56.3333 51.9998 56.3333C44.7715 56.3333 38.6665 53.28 38.6665 49.6666V54.6666C38.6665 58.28 44.7715 61.3333 51.9998 61.3333C59.2282 61.3333 65.3332 58.28 65.3332 54.6666V49.6666Z" fill="#004136"/>
</svg>
