<svg width="751" height="483" viewBox="0 0 751 483" fill="none" xmlns="http://www.w3.org/2000/svg">
<rect width="750.956" height="483" rx="40" fill="#004136"/>
<path d="M255.437 236.922H256.95C258.303 236.922 259.431 236.75 260.334 236.408C261.236 236.066 261.966 235.578 262.524 234.946C263.081 234.34 263.479 233.602 263.718 232.733C263.957 231.864 264.077 230.889 264.077 229.809C264.077 229.098 264.037 228.36 263.957 227.596C263.878 226.832 263.771 226.068 263.639 225.304L262.803 220.523L266.227 219.89L266.784 223.21C266.917 223.974 267.023 224.711 267.103 225.423C267.209 226.134 267.289 226.806 267.342 227.438H271.045V230.955L270.089 231.903H267.342C267.182 233.273 266.864 234.538 266.386 235.697C265.908 236.856 265.245 237.857 264.395 238.7C263.572 239.543 262.55 240.202 261.329 240.676C260.108 241.15 258.662 241.387 256.989 241.387H255.437V236.922ZM270.09 228.386L271.046 227.438H275.306V230.955L274.351 231.903H270.09V228.386ZM274.367 228.386L275.323 227.438H279.583V230.955L278.628 231.903H274.367V228.386ZM278.645 228.386L279.6 227.438H283.861V230.955L282.905 231.903H278.645V228.386ZM282.922 228.386L283.877 227.438H284.713C286.519 227.438 287.793 227.24 288.536 226.845C289.279 226.424 289.651 225.673 289.651 224.593C289.651 224.145 289.611 223.578 289.531 222.894C289.478 222.209 289.359 221.3 289.173 220.167L288.536 216.729L292 216.176L292.518 219.614C292.836 221.721 292.995 223.381 292.995 224.593C292.995 227.069 292.318 228.913 290.965 230.125C289.611 231.31 287.527 231.903 284.713 231.903H282.922V228.386ZM292.159 240.083C291.549 240.083 291.058 239.899 290.686 239.53C290.341 239.161 290.168 238.595 290.168 237.831C290.168 237.04 290.341 236.461 290.686 236.092C291.058 235.749 291.549 235.578 292.159 235.578H292.756C293.367 235.578 293.858 235.749 294.23 236.092C294.601 236.461 294.787 237.04 294.787 237.831C294.787 238.595 294.601 239.161 294.23 239.53C293.858 239.899 293.367 240.083 292.756 240.083H292.159ZM286.545 240.083C285.934 240.083 285.443 239.899 285.072 239.53C284.727 239.161 284.554 238.595 284.554 237.831C284.554 237.04 284.727 236.461 285.072 236.092C285.443 235.749 285.934 235.578 286.545 235.578H287.142C287.753 235.578 288.244 235.749 288.616 236.092C288.987 236.461 289.173 237.04 289.173 237.831C289.173 238.595 288.987 239.161 288.616 239.53C288.244 239.899 287.753 240.083 287.142 240.083H286.545ZM296.225 236.922H297.738C299.092 236.922 300.22 236.75 301.123 236.408C302.025 236.066 302.755 235.578 303.312 234.946C303.87 234.34 304.268 233.602 304.507 232.733C304.746 231.864 304.865 230.889 304.865 229.809C304.865 229.098 304.825 228.36 304.746 227.596C304.666 226.832 304.56 226.068 304.427 225.304L303.591 220.523L307.015 219.89L307.573 223.21C308.024 225.765 308.25 227.952 308.25 229.769C308.25 231.403 308.051 232.917 307.652 234.314C307.281 235.736 306.67 236.974 305.821 238.028C304.971 239.082 303.883 239.899 302.556 240.478C301.229 241.084 299.636 241.387 297.778 241.387H296.225V236.922ZM319.847 231.903C317.246 231.903 315.374 231.376 314.233 230.323C313.092 229.242 312.521 227.451 312.521 224.948V202.661H316.224V224.593C316.224 225.699 316.476 226.45 316.98 226.845C317.511 227.24 318.374 227.438 319.569 227.438H320.882V230.955L319.887 231.903H319.847ZM319.939 228.386L320.894 227.438H325.155V230.955L324.199 231.903H319.939V228.386ZM324.216 228.386L325.171 227.438H329.432V230.955L328.476 231.903H324.216V228.386ZM328.493 228.386L329.449 227.438H333.709V230.955L332.753 231.903H328.493V228.386ZM332.77 228.386L333.726 227.438H338.862L338.942 227.24C336.553 225.212 335.358 222.828 335.358 220.088C335.358 218.981 335.531 217.941 335.876 216.966C336.247 215.991 336.765 215.135 337.429 214.398C338.092 213.66 338.875 213.08 339.778 212.659C340.707 212.237 341.729 212.027 342.844 212.027C343.959 212.027 344.967 212.237 345.87 212.659C346.799 213.08 347.582 213.66 348.219 214.398C348.883 215.109 349.4 215.965 349.772 216.966C350.143 217.941 350.329 218.981 350.329 220.088C350.329 222.801 349.135 225.185 346.746 227.24L346.825 227.438H352.002V230.955L351.046 231.903H350.568C349.161 231.903 347.808 231.745 346.507 231.429C345.233 231.087 344.012 230.533 342.844 229.769C341.702 230.533 340.481 231.087 339.181 231.429C337.88 231.745 336.539 231.903 335.159 231.903H332.77V228.386ZM342.844 226.529C344.198 225.791 345.246 224.948 345.989 224C346.732 223.052 347.104 221.945 347.104 220.681C347.104 219.416 346.719 218.402 345.949 217.638C345.206 216.874 344.237 216.492 343.043 216.492H342.605C341.41 216.492 340.428 216.874 339.658 217.638C338.915 218.402 338.544 219.416 338.544 220.681C338.544 221.945 338.915 223.052 339.658 224C340.428 224.948 341.49 225.791 342.844 226.529ZM345.273 207.996C344.662 207.996 344.171 207.812 343.799 207.443C343.454 207.074 343.282 206.508 343.282 205.744C343.282 204.953 343.454 204.387 343.799 204.044C344.171 203.675 344.662 203.491 345.273 203.491H345.87C346.48 203.491 346.971 203.675 347.343 204.044C347.715 204.387 347.9 204.953 347.9 205.744C347.9 206.508 347.715 207.074 347.343 207.443C346.971 207.812 346.48 207.996 345.87 207.996H345.273ZM339.658 207.996C339.048 207.996 338.557 207.812 338.185 207.443C337.84 207.074 337.668 206.508 337.668 205.744C337.668 204.953 337.84 204.387 338.185 204.044C338.557 203.675 339.048 203.491 339.658 203.491H340.256C340.866 203.491 341.357 203.675 341.729 204.044C342.1 204.387 342.286 204.953 342.286 205.744C342.286 206.508 342.1 207.074 341.729 207.443C341.357 207.812 340.866 207.996 340.256 207.996H339.658ZM351.045 228.386L352.002 227.438H356.261V230.955L355.306 231.903H351.046L351.045 228.386ZM355.323 228.386L356.278 227.438H357.114C358.919 227.438 360.193 227.24 360.937 226.845C361.68 226.424 362.051 225.673 362.051 224.593C362.051 224.145 362.012 223.578 361.932 222.894C361.879 222.209 361.759 221.3 361.574 220.167L360.937 216.729L364.401 216.176L364.918 219.614C365.237 221.721 365.396 223.381 365.396 224.593C365.396 227.069 364.719 228.913 363.365 230.125C362.012 231.31 359.928 231.903 357.114 231.903H355.323V228.386ZM364.6 212.145C363.989 212.145 363.498 211.961 363.127 211.592C362.781 211.223 362.609 210.657 362.609 209.893C362.609 209.102 362.781 208.536 363.127 208.194C363.498 207.825 363.989 207.64 364.6 207.64H365.197C365.808 207.64 366.298 207.825 366.67 208.194C367.042 208.536 367.228 209.102 367.228 209.893C367.228 210.657 367.042 211.223 366.67 211.592C366.298 211.961 365.808 212.145 365.197 212.145H364.6ZM358.986 212.145C358.375 212.145 357.884 211.961 357.512 211.592C357.167 211.223 356.995 210.657 356.995 209.893C356.995 209.102 357.167 208.536 357.512 208.194C357.884 207.825 358.375 207.64 358.986 207.64H359.583C360.193 207.64 360.684 207.825 361.056 208.194C361.428 208.536 361.614 209.102 361.614 209.893C361.614 210.657 361.428 211.223 361.056 211.592C360.684 211.961 360.193 212.145 359.583 212.145H358.986Z" fill="white"/>
<path d="M262.194 259.316V280.452H259.327V259.316H251.751V256.81H269.771V259.316H262.194ZM283.83 280.452C282.806 280.452 282.067 280.181 281.612 279.639C281.179 279.097 280.906 278.419 280.793 277.606H280.622C280.235 278.69 279.598 279.503 278.711 280.045C277.824 280.587 276.766 280.858 275.537 280.858C273.671 280.858 272.215 280.384 271.168 279.435C270.145 278.487 269.633 277.2 269.633 275.574C269.633 273.926 270.236 272.661 271.441 271.781C272.67 270.9 274.57 270.46 277.141 270.46H280.622V268.732C280.622 267.49 280.281 266.542 279.598 265.887C278.916 265.232 277.869 264.905 276.458 264.905C275.389 264.905 274.49 265.142 273.762 265.616C273.057 266.09 272.465 266.723 271.988 267.513L270.349 265.989C270.827 265.04 271.589 264.239 272.636 263.584C273.683 262.906 275.002 262.568 276.595 262.568C278.734 262.568 280.395 263.087 281.578 264.126C282.761 265.165 283.352 266.61 283.352 268.461V278.081H285.366V280.452H283.83ZM275.981 278.555C276.663 278.555 277.289 278.476 277.858 278.318C278.426 278.16 278.916 277.934 279.325 277.64C279.735 277.347 280.053 277.008 280.281 276.624C280.508 276.24 280.622 275.823 280.622 275.371V272.492H277.004C275.435 272.492 274.286 272.718 273.557 273.169C272.852 273.621 272.499 274.276 272.499 275.134V275.845C272.499 276.703 272.807 277.369 273.421 277.844C274.058 278.318 274.911 278.555 275.981 278.555ZM304.109 282.382C304.109 284.189 303.392 285.51 301.958 286.345C300.548 287.203 298.42 287.632 295.576 287.632C292.823 287.632 290.844 287.26 289.638 286.515C288.432 285.769 287.829 284.708 287.829 283.331C287.829 282.382 288.08 281.637 288.58 281.095C289.081 280.576 289.763 280.192 290.628 279.944V279.571C289.581 279.074 289.058 278.261 289.058 277.132C289.058 276.252 289.342 275.585 289.911 275.134C290.48 274.66 291.208 274.31 292.095 274.084V273.948C291.049 273.452 290.23 272.74 289.638 271.815C289.069 270.889 288.785 269.816 288.785 268.597C288.785 267.716 288.944 266.903 289.263 266.158C289.581 265.413 290.025 264.781 290.594 264.261C291.185 263.719 291.879 263.302 292.676 263.008C293.495 262.715 294.405 262.568 295.406 262.568C296.657 262.568 297.772 262.794 298.75 263.245V262.94C298.75 262.263 298.91 261.71 299.228 261.281C299.547 260.829 300.07 260.603 300.798 260.603H303.426V262.974H300.081V264.092C300.718 264.634 301.208 265.289 301.549 266.056C301.913 266.802 302.095 267.648 302.095 268.597C302.095 269.477 301.936 270.29 301.617 271.036C301.299 271.781 300.844 272.424 300.252 272.966C299.683 273.486 298.989 273.892 298.17 274.185C297.351 274.479 296.441 274.626 295.44 274.626C294.871 274.626 294.302 274.569 293.734 274.456C293.142 274.615 292.607 274.852 292.129 275.168C291.652 275.461 291.413 275.879 291.413 276.421C291.413 276.94 291.663 277.29 292.164 277.471C292.664 277.652 293.313 277.742 294.109 277.742H297.863C300.047 277.742 301.629 278.16 302.607 278.995C303.608 279.808 304.109 280.937 304.109 282.382ZM301.549 282.585C301.549 281.885 301.276 281.321 300.73 280.892C300.207 280.485 299.262 280.282 297.897 280.282H292.027C290.935 280.779 290.389 281.569 290.389 282.653C290.389 283.421 290.673 284.076 291.242 284.618C291.834 285.16 292.823 285.431 294.211 285.431H296.737C298.261 285.431 299.444 285.194 300.286 284.719C301.128 284.245 301.549 283.534 301.549 282.585ZM295.44 272.458C296.6 272.458 297.522 272.187 298.204 271.645C298.887 271.081 299.228 270.223 299.228 269.071V268.123C299.228 266.971 298.887 266.124 298.204 265.582C297.522 265.018 296.6 264.735 295.44 264.735C294.28 264.735 293.358 265.018 292.676 265.582C291.993 266.124 291.652 266.971 291.652 268.123V269.071C291.652 270.223 291.993 271.081 292.676 271.645C293.358 272.187 294.28 272.458 295.44 272.458ZM319.992 280.452C318.968 280.452 318.228 280.181 317.773 279.639C317.341 279.097 317.068 278.419 316.954 277.606H316.784C316.397 278.69 315.76 279.503 314.872 280.045C313.985 280.587 312.927 280.858 311.698 280.858C309.833 280.858 308.377 280.384 307.33 279.435C306.306 278.487 305.794 277.2 305.794 275.574C305.794 273.926 306.397 272.661 307.603 271.781C308.832 270.9 310.731 270.46 313.302 270.46H316.784V268.732C316.784 267.49 316.442 266.542 315.76 265.887C315.077 265.232 314.03 264.905 312.62 264.905C311.55 264.905 310.652 265.142 309.924 265.616C309.218 266.09 308.627 266.723 308.149 267.513L306.511 265.989C306.989 265.04 307.751 264.239 308.797 263.584C309.844 262.906 311.164 262.568 312.756 262.568C314.895 262.568 316.556 263.087 317.739 264.126C318.922 265.165 319.514 266.61 319.514 268.461V278.081H321.527V280.452H319.992ZM312.142 278.555C312.825 278.555 313.45 278.476 314.019 278.318C314.588 278.16 315.077 277.934 315.487 277.64C315.896 277.347 316.215 277.008 316.442 276.624C316.67 276.24 316.784 275.823 316.784 275.371V272.492H313.166C311.596 272.492 310.447 272.718 309.719 273.169C309.014 273.621 308.661 274.276 308.661 275.134V275.845C308.661 276.703 308.968 277.369 309.582 277.844C310.219 278.318 311.073 278.555 312.142 278.555ZM325.424 280.452V262.974H328.154V266.192H328.325C328.644 265.356 329.212 264.611 330.031 263.956C330.851 263.302 331.977 262.974 333.41 262.974H334.468V265.684H332.864C331.385 265.684 330.225 265.966 329.383 266.531C328.564 267.073 328.154 267.761 328.154 268.597V280.452H325.424ZM344.41 280.858C343.204 280.858 342.112 280.644 341.134 280.215C340.178 279.785 339.348 279.176 338.642 278.385C337.96 277.573 337.425 276.613 337.038 275.506C336.674 274.377 336.492 273.113 336.492 271.713C336.492 270.335 336.674 269.082 337.038 267.953C337.425 266.824 337.96 265.865 338.642 265.074C339.348 264.261 340.178 263.64 341.134 263.211C342.112 262.782 343.204 262.568 344.41 262.568C345.593 262.568 346.651 262.782 347.584 263.211C348.517 263.64 349.313 264.239 349.973 265.006C350.633 265.752 351.133 266.644 351.475 267.682C351.839 268.721 352.021 269.861 352.021 271.103V272.39H339.359V273.203C339.359 273.948 339.473 274.648 339.7 275.303C339.95 275.935 340.292 276.489 340.724 276.963C341.179 277.437 341.725 277.81 342.362 278.081C343.022 278.352 343.761 278.487 344.581 278.487C345.695 278.487 346.662 278.227 347.481 277.708C348.323 277.189 348.972 276.444 349.427 275.473L351.372 276.861C350.803 278.058 349.916 279.029 348.71 279.774C347.504 280.497 346.071 280.858 344.41 280.858ZM344.41 264.837C343.659 264.837 342.977 264.973 342.362 265.244C341.748 265.492 341.213 265.853 340.758 266.327C340.326 266.802 339.985 267.366 339.734 268.021C339.484 268.653 339.359 269.353 339.359 270.121V270.358H349.086V269.986C349.086 268.427 348.653 267.185 347.789 266.26C346.947 265.311 345.821 264.837 344.41 264.837ZM356.52 280.452V262.974H359.25V266.192H359.421C359.739 265.356 360.308 264.611 361.127 263.956C361.946 263.302 363.072 262.974 364.506 262.974H365.564V265.684H363.96C362.481 265.684 361.32 265.966 360.479 266.531C359.66 267.073 359.25 267.761 359.25 268.597V280.452H356.52Z" fill="white"/>
<path d="M446.488 250.092C451.055 250.092 454.758 246.417 454.758 241.884C454.758 237.351 451.055 233.676 446.488 233.676C441.92 233.676 438.217 237.351 438.217 241.884C438.217 246.417 441.92 250.092 446.488 250.092Z" fill="white"/>
<path d="M415.977 281.073C420.978 281.073 425.032 277.049 425.032 272.085C425.032 267.122 420.978 263.098 415.977 263.098C410.976 263.098 406.921 267.122 406.921 272.085C406.921 277.049 410.976 281.073 415.977 281.073Z" fill="white"/>
<path d="M403.395 250.815C408.396 250.815 412.45 246.791 412.45 241.827C412.45 236.864 408.396 232.84 403.395 232.84C398.394 232.84 394.339 236.864 394.339 241.827C394.339 246.791 398.394 250.815 403.395 250.815Z" fill="white"/>
<path d="M416.068 220.59C421.069 220.59 425.124 216.567 425.124 211.603C425.124 206.64 421.069 202.616 416.068 202.616C411.067 202.616 407.013 206.64 407.013 211.603C407.013 216.567 411.067 220.59 416.068 220.59Z" fill="white"/>
<path d="M446.556 208.103C451.557 208.103 455.611 204.08 455.611 199.116C455.611 194.153 451.557 190.129 446.556 190.129C441.555 190.129 437.5 194.153 437.5 199.116C437.5 204.08 441.555 208.103 446.556 208.103Z" fill="white"/>
<path d="M477.01 220.669C482.011 220.669 486.065 216.646 486.065 211.682C486.065 206.719 482.011 202.695 477.01 202.695C472.009 202.695 467.955 206.719 467.955 211.682C467.955 216.646 472.009 220.669 477.01 220.669Z" fill="white"/>
<path d="M489.592 250.927C494.593 250.927 498.647 246.904 498.647 241.94C498.647 236.977 494.593 232.953 489.592 232.953C484.591 232.953 480.537 236.977 480.537 241.94C480.537 246.904 484.591 250.927 489.592 250.927Z" fill="white"/>
<path d="M476.93 281.152C481.931 281.152 485.986 277.128 485.986 272.164C485.986 267.201 481.931 263.177 476.93 263.177C471.929 263.177 467.875 267.201 467.875 272.164C467.875 277.128 471.929 281.152 476.93 281.152Z" fill="white"/>
<path d="M446.431 293.639C451.432 293.639 455.486 289.615 455.486 284.652C455.486 279.688 451.432 275.665 446.431 275.665C441.43 275.665 437.375 279.688 437.375 284.652C437.375 289.615 441.43 293.639 446.431 293.639Z" fill="white"/>
</svg>
