<svg width="113" height="114" viewBox="0 0 113 114" fill="none" xmlns="http://www.w3.org/2000/svg">
<rect x="0.594482" y="0.690918" width="111.608" height="112.904" rx="15" fill="#004136" fill-opacity="0.1"/>
<path d="M52.1414 43.787C51.6055 43.25 50.7429 43.25 49.0179 43.25H48.5604V40.5C48.5604 39.7406 47.946 39.125 47.1881 39.125C46.4302 39.125 45.8158 39.7406 45.8158 40.5V43.25H45.3584C43.6333 43.25 42.7708 43.25 42.2349 43.787C41.699 44.3239 41.699 45.1882 41.699 46.9167V47.2903C42.0695 47.1927 42.4412 47.1247 42.807 47.0754C43.9883 46.9163 45.4405 46.9165 47.0244 46.9167H47.3519C48.9358 46.9165 50.3879 46.9163 51.5693 47.0754C51.9351 47.1247 52.3068 47.1928 52.6773 47.2903L52.6773 46.9167C52.6773 45.1882 52.6773 44.3239 52.1414 43.787Z" fill="#004136"/>
<path fill-rule="evenodd" clip-rule="evenodd" d="M38.0395 73.9583C37.2816 73.9583 36.6672 74.5739 36.6672 75.3333C36.6672 76.0927 37.2816 76.7083 38.0395 76.7083H74.634C75.3919 76.7083 76.0063 76.0927 76.0063 75.3333C76.0063 74.5739 75.3919 73.9583 74.634 73.9583H72.8042V49.2486C72.8042 46.7904 72.8043 45.5612 72.1526 44.6191C71.5009 43.6769 70.3524 43.2453 68.0552 42.3822C63.5628 40.6942 61.3166 39.8502 59.7415 40.9438C58.1665 42.0375 58.1665 44.4412 58.1665 49.2486V54.25L58.3302 54.25C59.9141 54.2498 61.3663 54.2496 62.5476 54.4088C63.8484 54.584 65.2234 54.9963 66.3542 56.1294C67.4851 57.2625 67.8966 58.6401 68.0715 59.9436C68.2303 61.1272 68.2301 62.5823 68.23 64.1693L68.2299 64.3333V73.9583H65.4854V64.3333C65.4854 60.8764 65.4854 59.1479 64.4135 58.0739C63.3417 57 61.6166 57 58.1665 57H54.507C51.0569 57 49.3318 57 48.26 58.0739C47.1881 59.1479 47.1881 60.8764 47.1881 64.3333V73.9583H44.4436V64.3333L44.4435 64.1693C44.4434 62.5823 44.4432 61.1272 44.602 59.9436C44.7769 58.6401 45.1884 57.2625 46.3193 56.1294C47.4501 54.9963 48.8251 54.584 50.1259 54.4088C51.3072 54.2496 52.7594 54.2498 54.3433 54.25L54.475 54.25C54.4039 52.5337 54.1746 51.4814 53.4352 50.7406C52.3634 49.6667 50.6383 49.6667 47.1881 49.6667C43.738 49.6667 42.0129 49.6667 40.9411 50.7406C39.8692 51.8145 39.8693 53.543 39.8693 57V73.9583H38.0395ZM51.305 62.5C51.305 61.7406 51.9194 61.125 52.6773 61.125H59.9962C60.7541 61.125 61.3685 61.7406 61.3685 62.5C61.3685 63.2594 60.7541 63.875 59.9962 63.875H52.6773C51.9194 63.875 51.305 63.2594 51.305 62.5ZM51.305 68C51.305 67.2406 51.9194 66.625 52.6773 66.625H59.9962C60.7541 66.625 61.3685 67.2406 61.3685 68C61.3685 68.7594 60.7541 69.375 59.9962 69.375H52.6773C51.9194 69.375 51.305 68.7594 51.305 68Z" fill="#004136"/>
</svg>
