<svg width="112" height="114" viewBox="0 0 112 114" fill="none" xmlns="http://www.w3.org/2000/svg">
<rect x="0.307617" y="0.690918" width="111.608" height="112.904" rx="15" fill="#004136" fill-opacity="0.1"/>
<path fill-rule="evenodd" clip-rule="evenodd" d="M40.4955 41.3515C37.8159 44.0364 37.8159 48.3576 37.8159 57C37.8159 65.6424 37.8159 69.9636 40.4955 72.6485C43.1751 75.3334 47.4877 75.3334 56.1131 75.3334C64.7385 75.3334 69.0512 75.3334 71.7308 72.6485C74.4104 69.9636 74.4104 65.6424 74.4104 57C74.4104 48.3576 74.4104 44.0364 71.7308 41.3515C69.0512 38.6667 64.7385 38.6667 56.1131 38.6667C47.4877 38.6667 43.1751 38.6667 40.4955 41.3515ZM65.2618 57.4584C66.0196 57.4584 66.634 58.074 66.634 58.8334V68C66.634 68.7594 66.0196 69.375 65.2618 69.375C64.5039 69.375 63.8895 68.7594 63.8895 68V58.8334C63.8895 58.074 64.5039 57.4584 65.2618 57.4584ZM57.4854 46C57.4854 45.2406 56.871 44.625 56.1131 44.625C55.3552 44.625 54.7408 45.2406 54.7408 46V68C54.7408 68.7594 55.3552 69.375 56.1131 69.375C56.871 69.375 57.4854 68.7594 57.4854 68V46ZM46.9645 50.125C47.7224 50.125 48.3368 50.7406 48.3368 51.5V68C48.3368 68.7594 47.7224 69.375 46.9645 69.375C46.2066 69.375 45.5922 68.7594 45.5922 68V51.5C45.5922 50.7406 46.2066 50.125 46.9645 50.125Z" fill="#004136"/>
</svg>
