<svg width="112" height="114" viewBox="0 0 112 114" fill="none" xmlns="http://www.w3.org/2000/svg">
<rect x="0.0209961" y="0.690918" width="111.608" height="112.904" rx="15" fill="#004136" fill-opacity="0.1"/>
<path fill-rule="evenodd" clip-rule="evenodd" d="M53.6245 41.4515C52.3955 41.4515 51.35 42.3055 51.0565 43.4565H60.9248C60.6313 42.3055 59.5858 41.4515 58.3568 41.4515H53.6245ZM63.7129 43.4565H67.3447C71.1966 43.4565 74.3332 46.6312 74.3332 50.5299C74.3332 50.5299 74.2231 52.1804 74.1864 54.4788C74.1828 54.6607 74.0947 54.8389 73.9498 54.9466C73.0675 55.5982 72.2605 56.1366 72.1871 56.1738C69.1422 58.216 65.604 59.6529 61.8346 60.3677C61.5888 60.4159 61.3467 60.2878 61.2219 60.0688C60.1654 58.2382 58.1918 57.0463 55.9907 57.0463C53.8042 57.0463 51.8122 58.2252 50.7245 60.0576C50.598 60.273 50.3595 60.3974 50.1156 60.351C46.3774 59.6343 42.8391 58.1992 39.8126 56.1923L38.0517 54.967C37.905 54.8742 37.8132 54.7071 37.8132 54.5215C37.7582 53.5746 37.6665 50.5299 37.6665 50.5299C37.6665 46.6312 40.8031 43.4565 44.655 43.4565H48.2685C48.617 40.7646 50.8731 38.6667 53.6245 38.6667H58.3568C61.1082 38.6667 63.3644 40.7646 63.7129 43.4565ZM73.7095 58.4946L73.6362 58.5317C69.931 61.0195 65.4737 62.6718 60.7964 63.3587C60.1361 63.4516 59.4757 63.0246 59.2923 62.3562C58.8888 60.8338 57.5865 59.8313 56.0274 59.8313H56.009H55.9723C54.4132 59.8313 53.1109 60.8338 52.7074 62.3562C52.5239 63.0246 51.8636 63.4516 51.2033 63.3587C46.5259 62.6718 42.0687 61.0195 38.3635 58.5317C38.3452 58.5132 38.1618 58.4018 38.015 58.4946C37.8499 58.5874 37.8499 58.8102 37.8499 58.8102L37.9783 68.2785C37.9783 72.1772 41.0966 75.3334 44.9485 75.3334H67.0329C70.8848 75.3334 74.003 72.1772 74.003 68.2785L74.1497 58.8102C74.1497 58.8102 74.1497 58.5874 73.9847 58.4946C73.893 58.4389 73.7829 58.4575 73.7095 58.4946ZM57.3664 66.2735C57.3664 67.0532 56.7611 67.6659 55.9907 67.6659C55.2386 67.6659 54.615 67.0532 54.615 66.2735V63.8786C54.615 63.1174 55.2386 62.4862 55.9907 62.4862C56.7611 62.4862 57.3664 63.1174 57.3664 63.8786V66.2735Z" fill="#004136"/>
</svg>
