<svg width="113" height="114" viewBox="0 0 113 114" fill="none" xmlns="http://www.w3.org/2000/svg">
<rect x="0.734375" y="0.690918" width="111.608" height="112.904" rx="15" fill="#004136" fill-opacity="0.1"/>
<path fill-rule="evenodd" clip-rule="evenodd" d="M37.4053 54.6587C37.4053 45.7343 44.5488 38.4996 53.3609 38.4996C57.5926 38.4996 61.6509 40.2021 64.6432 43.2325C67.6355 46.2629 69.3165 50.3731 69.3165 54.6587C69.3165 63.5832 62.1729 70.8178 53.3609 70.8178C44.5488 70.8178 37.4053 63.5832 37.4053 54.6587ZM69.0525 67.6763L73.8045 71.5197H73.887C74.8484 72.4933 74.8484 74.072 73.887 75.0456C72.9256 76.0193 71.3669 76.0193 70.4055 75.0456L66.462 70.5171C66.0892 70.1408 65.8796 69.6297 65.8796 69.0967C65.8796 68.5636 66.0892 68.0525 66.462 67.6763C67.181 66.9607 68.3335 66.9607 69.0525 67.6763Z" fill="#004136"/>
</svg>
